<svg width="45" height="53" viewBox="0 0 45 53" fill="none" xmlns="http://www.w3.org/2000/svg">
<path fill-rule="evenodd" clip-rule="evenodd" d="M21.1033 0.237886C19.8359 0.57446 19.1361 0.949271 18.2752 1.75247C17.6885 2.29973 17.5429 2.38245 17.166 2.38245C16.5584 2.38245 15.1861 2.7509 14.4905 3.10074C12.2585 4.2232 10.8883 6.57625 10.898 9.26972C10.9047 11.105 11.3443 12.8951 12.1995 14.5685L12.6239 15.3987L12.2505 15.7608C11.6908 16.3037 11.4295 16.9389 11.3622 17.9197C11.2473 19.5994 11.8879 20.8568 13.1387 21.4064C13.3796 21.5123 13.5878 21.6045 13.6016 21.6113C13.6153 21.6182 13.7527 22.0597 13.907 22.5923C14.4629 24.512 15.2802 25.9515 16.503 27.1642L17.2418 27.8971L17.0773 28.8624C16.8788 30.0269 16.4937 31.1816 16.2632 31.3033C16.1707 31.3521 14.9863 31.7215 13.6314 32.124C11.1576 32.8589 10.7847 33.0378 10.7847 33.4898C10.7847 33.6463 10.5949 33.6964 9.60769 33.8005C5.36051 34.2481 2.06675 37.0109 0.802596 41.1864C0.568728 41.9585 0.557998 42.1901 0.519458 47.2687C0.479932 52.481 0.482341 52.5513 0.705041 52.7742L0.930698 53H22.5H44.0693L44.295 52.7742C44.5177 52.5513 44.5201 52.481 44.4805 47.2687C44.442 42.1901 44.4313 41.9585 44.1974 41.1864C42.9057 36.9198 39.3938 34.0616 35.0638 33.7526C34.1712 33.689 34.1058 33.6679 34.1058 33.4438C34.1058 33.3115 34.0195 33.1264 33.9142 33.0324C33.7593 32.8941 32.2926 32.4195 28.7193 31.3512C28.4991 31.2854 28.1363 30.3649 27.9143 29.3089C27.6446 28.0257 27.6566 27.9834 28.5679 27.0289C29.7915 25.7474 30.783 23.8618 31.1612 22.0973C31.2597 21.638 31.311 21.5748 31.6754 21.4649C32.258 21.2892 32.8647 20.7431 33.1996 20.093C33.4392 19.6278 33.4984 19.3435 33.5366 18.4721C33.5661 17.7974 33.5332 17.2627 33.4454 16.9931C33.2366 16.3521 32.7076 15.6479 32.2829 15.4453C32.0285 15.3238 31.9213 15.2082 31.9586 15.0956C31.9894 15.003 32.1853 14.4337 32.3941 13.8306C33.5855 10.3874 33.4451 7.00125 32.0121 4.61795C30.4586 2.03448 26.9238 0.138404 23.4307 0.0151468C22.2896 -0.0251719 21.9835 0.0040812 21.1033 0.237886ZM25.0755 1.73264C28.5242 2.63652 30.7294 4.4994 31.4276 7.09854C31.8076 8.51298 31.7366 10.5226 31.2408 12.3848L31.0135 13.2387L30.5848 12.3571C30.0813 11.3217 29.1209 10.2339 28.3296 9.80307C27.4566 9.32757 26.6736 9.17309 25.52 9.24891C23.1473 9.40492 20.8089 8.6885 18.8319 7.19988C18.3503 6.83723 17.8507 6.51304 17.7217 6.4794C17.3871 6.39241 16.9163 6.66982 16.0975 7.43621C14.6174 8.82172 13.7303 10.4998 13.373 12.59L13.2357 13.3934L12.9953 12.6797C12.4417 11.0365 12.2687 8.95879 12.5861 7.76533C13.1897 5.49587 14.7452 4.19865 17.2445 3.88049L18.3942 3.734L19.0676 3.07159C20.1731 1.98419 21.3788 1.52546 23.1637 1.51319C23.8905 1.50815 24.4751 1.57531 25.0755 1.73264ZM18.1456 8.62879C20.0034 10.0438 23.1069 10.9465 25.5299 10.7764C26.4003 10.7153 26.6184 10.7374 27.1658 10.9423C27.9578 11.2389 28.7091 11.9692 29.1778 12.8983C29.5557 13.6474 29.9452 15.0236 29.9452 15.6094C29.9452 15.9952 30.1074 16.4013 30.3175 16.5417C30.3837 16.5859 30.6259 16.6229 30.8558 16.6238C31.7111 16.6272 32.0255 17.0694 32.0255 18.2689C32.0255 19.4539 31.7017 19.9249 30.7064 20.1877C30.3903 20.271 30.0875 20.3836 30.0334 20.4377C29.9793 20.4918 29.844 20.9751 29.7327 21.5116C28.8784 25.6304 26.2097 28.0099 22.4354 28.018C20.4991 28.0222 18.8541 27.3493 17.5086 26.0028C16.2517 24.7448 15.4663 23.1984 15.1552 21.3686C15.0182 20.5626 14.822 20.2423 14.463 20.2386C14.3368 20.2373 14.0225 20.1403 13.7645 20.0232C13.171 19.7536 12.8709 19.1565 12.8674 18.238C12.8631 17.1198 13.2286 16.6255 14.0595 16.6255C14.649 16.6255 14.7623 16.3376 14.7387 14.9001C14.7042 12.8029 15.1326 11.1715 16.1009 9.71399C16.4998 9.1136 17.3697 8.18922 17.5358 8.18922C17.5538 8.18922 17.8282 8.38698 18.1456 8.62879ZM20.1053 29.2238C21.7755 29.6913 23.6767 29.6292 25.3739 29.0514C26.3241 28.7281 26.3317 28.7279 26.3338 29.0334C26.3366 29.4496 26.7593 30.9897 27.0378 31.5982L27.3013 32.1744L26.9333 34.6003C26.7309 35.9347 26.5343 37.0572 26.4967 37.0949C26.2084 37.3835 18.6924 37.3938 18.4049 37.1061C18.3734 37.0744 18.181 35.9662 17.9775 34.6432C17.6341 32.4108 17.6194 32.2105 17.7728 31.8546C18.0541 31.2017 18.4372 29.9672 18.563 29.3084L18.683 28.6795L18.9906 28.8387C19.1597 28.9262 19.6614 29.0995 20.1053 29.2238ZM16.3438 33.8541C16.4921 34.9302 16.7554 36.6864 17.7844 43.4597C18.2094 46.2571 18.5449 48.5576 18.5304 48.572C18.4928 48.6085 13.3646 40.2941 13.3263 40.1345C13.3091 40.0626 13.5923 39.6667 13.9558 39.2546C14.3193 38.8425 14.6168 38.4167 14.6168 38.3083C14.6168 38.1998 14.1645 37.1971 13.6116 36.08C13.0588 34.9628 12.6277 34.0335 12.6536 34.0149C12.72 33.967 15.9601 32.979 16.1023 32.9631C16.1682 32.9559 16.2737 33.3453 16.3438 33.8541ZM30.6292 33.5115C31.5173 33.7752 32.244 34.0285 32.2442 34.0744C32.2444 34.1202 31.7975 35.0514 31.251 36.1437C30.5678 37.5094 30.2762 38.2044 30.3176 38.3691C30.3506 38.5008 30.6697 38.9396 31.0267 39.3442L31.6756 40.0799L29.036 44.3444C27.5842 46.6898 26.3869 48.5985 26.3751 48.5858C26.3497 48.558 28.6056 33.5518 28.69 33.1889C28.7224 33.049 28.8087 32.9565 28.8818 32.9833C28.9548 33.01 29.7412 33.2476 30.6292 33.5115ZM12.1828 36.6216C12.558 37.3755 12.865 38.0458 12.865 38.1113C12.865 38.1767 12.5653 38.5576 12.1991 38.9576C11.6377 39.5706 11.5397 39.7367 11.5749 40.0152C11.599 40.2058 13.0618 42.6809 15.0328 45.8657C16.9117 48.9017 18.4489 51.4038 18.4489 51.4259C18.4489 51.4481 14.7537 51.4661 10.2372 51.4661H2.02559V47.0464C2.02559 42.9686 2.04278 42.5596 2.24708 41.7601C2.81445 39.5398 4.19938 37.6572 6.08707 36.5397C6.46547 36.3157 6.79098 36.1483 6.81036 36.1678C6.82985 36.1873 6.73864 36.445 6.6078 36.7405C6.20795 37.6436 5.96872 38.7523 5.8947 40.0443C5.85594 40.7223 5.78532 41.2769 5.7377 41.2769C5.69018 41.2769 5.35273 41.5534 4.98792 41.8913C4.52883 42.3166 4.21722 42.7298 3.97569 43.2334C3.31361 44.6135 3.45321 46.5168 4.31587 47.8748C4.72306 48.5159 4.98343 48.5904 5.75467 48.2869C6.52645 47.9832 6.73361 47.7865 6.73361 47.3576C6.73361 46.8497 6.41423 46.6006 5.85857 46.6752C5.34222 46.7446 5.28868 46.68 5.10014 45.7627C4.84624 44.5274 5.40627 43.2788 6.50981 42.6197C7.93985 41.7656 9.78123 42.4288 10.518 44.0634C10.8669 44.8375 10.9016 45.2602 10.6205 45.3126C10.2584 45.38 10.0183 45.6711 10.0183 46.0428C10.0183 46.5114 10.3032 46.7439 11.0152 46.8565C11.6333 46.9544 11.9632 46.8858 12.19 46.6124C12.3655 46.4009 12.3749 44.8574 12.2048 44.2169C11.7011 42.3221 10.012 40.8716 8.16912 40.7512L7.36021 40.6983L7.42798 39.8099C7.55904 38.0903 8.07419 36.7717 8.98437 35.8262L9.53795 35.251H10.5192H11.5004L12.1828 36.6216ZM35.4326 35.7166C36.1388 36.6759 36.7562 38.5568 36.9053 40.2033L36.9779 41.0045L36.5748 41.1505C35.6856 41.4721 34.9546 42.466 34.8111 43.5477C34.5889 45.2241 36.0541 46.8645 37.7737 46.8645C39.5006 46.8645 40.9485 45.2365 40.736 43.534C40.6055 42.4886 39.8765 41.5269 38.9077 41.1219L38.5207 40.96L38.3888 39.8709C38.2478 38.707 37.9002 37.3099 37.5187 36.374C37.3658 35.9991 37.3284 35.7988 37.4113 35.7988C37.7254 35.7988 39.2041 36.6459 39.8765 37.2111C41.3141 38.4192 42.3112 39.9945 42.7561 41.7601C42.9562 42.5547 42.9744 42.9937 42.9744 47.0464V51.4661H34.699H26.4238L26.6743 51.0553C26.812 50.8294 28.3681 48.306 30.132 45.4479C32.2397 42.0332 33.3394 40.1511 33.3394 39.9587C33.3394 39.7567 33.1359 39.4353 32.6825 38.9213C32.3212 38.5118 32.0255 38.1352 32.0255 38.0845C32.0255 38.0337 32.3325 37.3755 32.7078 36.6216L33.3901 35.251H34.2399H35.0898L35.4326 35.7166ZM26.2717 39.0309C26.2436 39.1514 25.8269 41.8877 25.3456 45.1115C24.8644 48.3354 24.4451 51.084 24.4139 51.2196C24.3577 51.4637 24.3382 51.4661 22.4432 51.4661C21.3904 51.4661 20.5279 51.4538 20.5262 51.4387C20.5246 51.4237 20.0931 48.5764 19.5673 45.1115L18.6113 38.8117H22.4669C26.2665 38.8117 26.3218 38.8149 26.2717 39.0309ZM38.557 42.6474C38.704 42.7438 38.9203 42.9802 39.0376 43.1727C39.6081 44.1088 38.8926 45.3299 37.7737 45.3299C36.6155 45.3299 35.9135 44.0728 36.5441 43.1283C37.0225 42.4116 37.8836 42.206 38.557 42.6474Z" fill="black"/>
</svg>
