<svg width="55" height="53" viewBox="0 0 55 53" fill="none" xmlns="http://www.w3.org/2000/svg">
<path fill-rule="evenodd" clip-rule="evenodd" d="M9.33445 0.12886C6.85439 0.61099 4.95753 1.61398 3.24966 3.34623C1.78025 4.8368 0.821226 6.52562 0.275777 8.58332C0.030428 9.50874 -0.00205582 9.83911 9.54282e-05 11.3785C0.00235424 12.9048 0.0376347 13.2572 0.280725 14.1831C0.602659 15.4092 1.20942 16.7806 1.86942 17.774C2.40067 18.5734 3.73939 20.0132 4.35174 20.4436C4.58096 20.6047 4.76844 20.769 4.76844 20.8089C4.76844 20.8487 4.58687 20.9457 4.36508 21.0243C3.3939 21.369 2.21233 22.4092 1.61385 23.4463C1.45434 23.7229 1.22631 24.3403 1.10713 24.8182C0.895766 25.6659 0.891141 25.9682 0.920183 37.1351L0.949978 48.5829L1.19242 49.2287C1.89674 51.1044 3.53943 52.5474 5.35293 52.8833C5.79437 52.9652 11.3005 53.0011 23.2083 53C42.1756 52.9982 41.1136 53.0358 42.459 52.3204C43.2827 51.8823 44.3129 50.8368 44.7073 50.0387C45.177 49.0879 45.3167 48.3872 45.3181 46.975L45.3194 45.6945L48.3378 47.2205C51.2447 48.6902 51.3807 48.7466 52.0218 48.7455C53.2579 48.7435 54.3548 47.978 54.7823 46.819C54.9947 46.2434 55 45.9983 55 36.7997C55 27.6526 54.9935 27.353 54.786 26.7899C54.5549 26.1637 53.9162 25.4523 53.279 25.1117C53.0031 24.9642 52.6726 24.9107 52.042 24.9117L51.1815 24.913L48.2505 26.4108L45.3194 27.9085L45.3181 26.6262C45.3162 24.6188 44.8894 23.438 43.7445 22.2721C42.5877 21.0939 41.2403 20.5977 39.1978 20.5977H38.1712L38.5991 20.2516C39.8378 19.2492 41.2599 17.3396 41.8644 15.8666C42.523 14.262 42.6799 13.4107 42.6822 11.433C42.6843 9.46128 42.5595 8.72494 41.9607 7.17796C41.2746 5.40535 39.8614 3.5197 38.3134 2.31159C33.1013 -1.75657 25.4088 -0.291736 21.9768 5.42247C21.6523 5.96276 21.3626 6.40681 21.333 6.40921C21.3034 6.41172 21.1459 6.15609 20.9828 5.84122C20.291 4.50524 18.8195 2.87686 17.4546 1.93671C16.4872 1.27031 15.1292 0.656269 13.9334 0.344559C12.6323 0.00535439 10.4873 -0.0952395 9.33445 0.12886ZM13.0421 2.37411C14.7561 2.73284 16.5659 3.75133 17.7502 5.02392C20.5736 8.05755 21.0549 12.5633 18.9416 16.1786C18.3222 17.238 16.8646 18.6979 15.7983 19.3266C12.7541 21.1213 9.0492 21.0142 6.1505 19.0475C3.46833 17.2277 1.93686 14.1526 2.1138 10.942C2.1892 9.57486 2.40841 8.70039 2.98893 7.45072C3.56826 6.20344 4.27279 5.26111 5.27333 4.39515C7.43566 2.5238 10.254 1.79051 13.0421 2.37411ZM33.9178 2.48769C36.8795 3.33913 39.2153 5.62061 40.172 8.59631C40.6082 9.95291 40.7111 11.7795 40.4307 13.1859C39.6004 17.3491 36.1471 20.365 31.9792 20.5674C27.6686 20.7767 24.039 18.1347 22.7707 13.8647C22.3844 12.5646 22.3591 10.426 22.7139 9.08728C23.6347 5.61253 26.3927 3.00713 29.8842 2.31345C30.9359 2.10451 32.8767 2.18842 33.9178 2.48769ZM10.523 5.00733C9.60981 5.10182 9.02123 5.28446 8.15665 5.74128C6.81943 6.44805 5.5773 7.96689 5.10242 9.47623C4.88417 10.1697 4.79479 11.3506 4.89676 12.1931C5.28301 15.3844 7.95443 17.7957 11.1146 17.8054C12.9323 17.811 14.3557 17.2163 15.6287 15.9195C16.9384 14.5854 17.5173 13.1468 17.4999 11.2694C17.4853 9.67546 16.9124 8.21717 15.8283 7.01397C14.5252 5.56769 12.5019 4.80244 10.523 5.00733ZM30.8523 5.00362C28.4044 5.27082 26.3563 6.92342 25.5118 9.3129C25.1959 10.2068 25.1237 11.8834 25.3577 12.8936C25.9507 15.4544 28.0614 17.3701 30.7337 17.7733C33.3002 18.1605 36.0123 16.6783 37.1937 14.2429C38.4356 11.6829 37.9697 8.86754 35.9704 6.85119C34.561 5.42989 32.7936 4.79185 30.8523 5.00362ZM13.0493 7.58197C14.2061 8.15422 15.0685 9.34509 15.3172 10.7136C15.814 13.4484 13.2553 16.0746 10.5626 15.5935C7.14567 14.983 5.7991 10.8552 8.21677 8.40287C9.47869 7.12286 11.4458 6.78867 13.0493 7.58197ZM33.3786 7.58197C34.9285 8.34875 35.8905 10.1401 35.6905 11.8874C35.5923 12.746 35.0214 13.897 34.4104 14.4682C32.3071 16.4349 29.0939 15.854 27.7656 13.2669C27.4318 12.617 27.412 12.5148 27.4111 11.433C27.4104 10.4059 27.4415 10.2197 27.7115 9.6328C28.7034 7.47636 31.2802 6.54385 33.3786 7.58197ZM21.9246 17.302C22.3209 18.0019 22.765 18.5608 23.6115 19.4249L24.7607 20.5977H21.3187H17.8767L18.797 19.7141C19.8295 18.7228 20.5792 17.767 20.9924 16.9155C21.1452 16.6005 21.2964 16.3448 21.3285 16.3474C21.3606 16.35 21.6288 16.7796 21.9246 17.302ZM41.2416 23.1203C42.3056 23.6265 43.1682 24.8435 43.1682 25.8389V26.162H31.2434H19.3187L19.0351 26.4496C18.4423 27.051 18.7839 28.1052 19.627 28.2763C19.811 28.3136 25.1831 28.3441 31.5649 28.3441H43.1682V36.8546V45.3649L23.1347 45.3374L3.10122 45.3098L3.07369 36.827L3.04615 28.3441L5.81652 28.338C8.988 28.3309 9.23657 28.2859 9.53667 27.6629C9.7007 27.3223 9.71318 27.1922 9.61175 26.8806C9.39544 26.2157 9.42405 26.2216 6.12351 26.162L3.10122 26.1075L3.13564 25.6711C3.23223 24.4449 4.24547 23.2771 5.5161 22.9278C5.8959 22.8234 9.87904 22.7978 23.3229 22.8138L40.6404 22.8344L41.2416 23.1203ZM13.3191 26.4254C12.98 26.7694 12.8865 27.1781 13.0534 27.5868C13.2373 28.0373 13.5526 28.235 14.087 28.235C15.0003 28.235 15.432 27.1423 14.78 26.481C14.3638 26.0588 13.7052 26.0337 13.3191 26.4254ZM52.5847 27.3027L52.8488 27.5705V36.78C52.8488 45.9318 52.8474 45.9914 52.6258 46.277C52.4864 46.4568 52.295 46.5659 52.1149 46.5681C51.9514 46.5703 50.4215 45.8511 48.5756 44.9042L45.3242 43.2368L45.3221 36.7997L45.3198 30.3625L48.5734 28.7034C50.3628 27.7909 51.938 27.0422 52.0738 27.0396C52.2096 27.0369 52.4395 27.1554 52.5847 27.3027ZM19.6658 30.6242C18.8807 30.8279 18.264 31.3244 17.8733 32.0672C17.6256 32.5381 17.6217 32.5982 17.589 36.4576C17.5673 39.0157 17.5967 40.5645 17.674 40.9309C17.8326 41.6827 18.2513 42.2645 18.9072 42.6445C19.5747 43.0312 20.1786 43.1325 20.8013 42.9624C21.3129 42.8227 27.3157 39.2023 27.8272 38.7249C28.2822 38.3004 28.6451 37.446 28.6451 36.7997C28.6451 36.0982 28.2541 35.2349 27.7526 34.829C27.3115 34.4721 22.4226 31.433 21.5442 30.9697C20.8935 30.6266 20.1696 30.4934 19.6658 30.6242ZM23.4817 34.6843C26.2017 36.3605 26.4422 36.5331 26.4422 36.8083C26.4422 37.0838 26.196 37.2596 23.3767 38.9961C21.6907 40.0345 20.2534 40.8857 20.1829 40.8876C20.1122 40.8895 19.9791 40.782 19.8871 40.6485C19.7436 40.4409 19.7196 39.8849 19.7196 36.7753C19.7196 33.3041 19.7289 33.1352 19.9322 32.929C20.0667 32.7926 20.2142 32.7401 20.333 32.7864C20.4365 32.8267 21.8534 33.6807 23.4817 34.6843ZM43.1682 47.815C43.1682 48.7405 42.2897 49.9911 41.2858 50.4951L40.748 50.765H23.1616H5.57515L5.078 50.5318C4.06756 50.0579 3.28601 49.037 3.10585 47.9556L3.03765 47.5464H23.103H43.1682V47.815Z" fill="black"/>
</svg>
