<svg width="53" height="53" viewBox="0 0 53 53" fill="none" xmlns="http://www.w3.org/2000/svg">
<path fill-rule="evenodd" clip-rule="evenodd" d="M41.118 0.109404C38.4582 0.600755 36.1859 2.00176 34.6402 4.10321C34.0021 4.97079 33.4412 6.08447 33.4412 6.48381C33.4412 7.11908 34.2358 7.45418 34.6831 7.00748C34.7955 6.89516 35.0342 6.51303 35.2135 6.15824C36.456 3.69993 38.9378 1.98331 41.7903 1.60915C44.525 1.25054 47.1653 2.21593 49.1253 4.29107C52.4878 7.85113 52.16 13.092 48.236 18.5059C47.0648 20.122 44.179 23.2446 43.0617 24.105L42.775 24.3258L40.9225 22.478C38.3216 19.8835 36.9345 18.0683 35.6975 15.6403C34.8134 13.9048 34.3794 12.4242 34.2191 10.5954C34.1671 10.002 34.0944 9.72929 33.9501 9.58516C33.6967 9.33202 33.2212 9.33244 32.9081 9.58609C32.683 9.76825 32.6654 9.85063 32.6917 10.5964C32.8009 13.7096 34.2947 17.1266 37.0555 20.5783C37.4885 21.1197 38.0513 21.7862 38.3061 22.0596C38.7468 22.5324 38.7581 22.5595 38.5383 22.617C38.0196 22.7525 36.8577 23.3827 36.4524 23.7485C35.1382 24.9344 35.3775 26.5253 37.0188 27.5126C38.4248 28.3586 40.3816 28.7884 42.8298 28.789C47.1161 28.79 50.0398 27.4178 50.0398 25.4053C50.0398 24.7646 49.8194 24.3149 49.2475 23.7884C48.8161 23.3912 47.4599 22.6506 47.1639 22.6506C46.9079 22.6506 47.0377 22.4232 47.7619 21.6023C51.5026 17.3623 53.3613 12.859 52.9417 9.05184C52.4736 4.80211 49.3906 1.28628 45.2322 0.260063C44.1275 -0.0125529 42.167 -0.0843593 41.118 0.109404ZM41.3143 5.90138C40.4847 6.24227 40.0726 6.5181 39.5345 7.09266C37.0817 9.71188 38.5634 13.9528 42.1521 14.5842C44.328 14.967 46.618 13.4693 47.1858 11.2921C47.7934 8.96222 46.5035 6.62016 44.1763 5.82822C43.4083 5.5668 42.0437 5.60172 41.3143 5.90138ZM44.0786 7.45687C45.9315 8.31865 46.3484 10.7881 44.8873 12.2476C44.3267 12.8075 43.6974 13.0541 42.8298 13.0541C41.9351 13.0541 41.3103 12.7979 40.7173 12.1876C39.203 10.6291 39.882 7.93599 41.9473 7.30849C42.5195 7.13473 43.5384 7.2056 44.0786 7.45687ZM10.9778 16.063C6.14769 16.858 2.15345 20.2552 0.614758 24.8767C-0.20542 27.3402 -0.204902 30.3657 0.61621 33.2283C1.60704 36.6824 3.94444 40.5738 7.21291 44.2108C7.67394 44.7237 8.0333 45.1613 8.01151 45.183C7.98972 45.2049 7.58161 45.3649 7.1046 45.5387C4.52923 46.4776 3.30135 48.099 3.97732 49.6686C4.68577 51.3133 7.28698 52.5021 11.055 52.9031C15.1313 53.3369 19.8539 52.2712 21.4226 50.5635C22.1161 49.8085 22.333 48.7464 21.9705 47.88C21.6005 46.9953 20.3317 46.0686 18.6542 45.4578L17.8874 45.1785L18.589 44.3994C19.2985 43.6115 20.8043 41.7757 21.1276 41.3044C21.4819 40.7882 21.268 40.1116 20.7329 40.056C20.2581 40.0066 20.1247 40.1139 19.1543 41.3248C17.5923 43.2741 15.6287 45.326 13.6526 47.0739L13.0044 47.6474L12.5115 47.2474C11.6771 46.5702 9.19219 44.1058 8.18808 42.9595C1.96049 35.8503 0.0712576 29.3244 2.68077 23.9369C5.33571 18.4559 11.8073 16.0349 17.489 18.3975C19.2731 19.1392 21.3136 20.8168 22.4104 22.4434C23.9023 24.656 24.4888 26.7373 24.3815 29.4375C24.2865 31.8269 23.7502 33.6863 22.369 36.4155C21.4615 38.2086 21.4086 38.4517 21.8571 38.7654C22.2226 39.0211 22.6024 38.9554 22.9186 38.5817C23.3583 38.0622 24.6887 35.268 25.1019 33.9967C25.3057 33.3698 25.5621 32.4605 25.672 31.9761C25.9426 30.7824 26.0407 28.4322 25.8719 27.1902C25.1291 21.7259 20.9978 17.3174 15.5458 16.1711C14.4525 15.9413 12.0607 15.8846 10.9778 16.063ZM11.5981 23.4396C11.2526 23.5215 10.6236 23.7854 10.2003 24.0262C9.57852 24.3799 9.41264 24.5279 9.33608 24.7975C9.26346 25.0529 9.2813 25.1919 9.41233 25.3916C9.70011 25.8302 10.0397 25.8364 10.8678 25.4182C11.7521 24.9716 12.2616 24.8275 12.9523 24.8283C14.5448 24.8304 15.9869 25.7519 16.6785 27.2094C16.9694 27.8224 16.9982 27.9768 16.9982 28.9194C16.9982 29.8666 16.9704 30.0135 16.6745 30.6291C15.4328 33.213 12.106 33.7829 10.0794 31.7588C9.14633 30.8268 8.73427 29.5036 8.96219 28.1715C9.07517 27.5116 9.07009 27.3929 8.91914 27.1629C8.61394 26.6976 7.95777 26.6918 7.65599 27.1518C7.5704 27.2823 7.44809 27.7801 7.38419 28.2578C7.15502 29.9709 7.72166 31.5858 9.00151 32.8672C12.5558 36.4258 18.5974 33.9517 18.6049 28.9344C18.6073 27.3526 18.068 26.0505 16.9463 24.9302C15.5416 23.5271 13.5591 22.9745 11.5981 23.4396ZM40.9278 24.6881C42.0653 25.7331 42.5417 26.07 42.8813 26.07C43.1504 26.07 43.378 25.8946 45.2189 24.2692L45.6741 23.8673L46.1712 23.9905C46.8127 24.1496 47.7084 24.5574 48.1422 24.8878C48.613 25.2465 48.5909 25.5476 48.0605 26.0011C47.1574 26.7732 45.1971 27.236 42.8298 27.236C40.4594 27.236 38.4985 26.7684 37.5798 25.9842C36.9321 25.4312 37.0748 25.0338 38.1095 24.51C38.6238 24.2497 39.6196 23.9083 39.8904 23.8996C39.9854 23.8965 40.4522 24.2514 40.9278 24.6881ZM31.7052 24.7053C31.2367 24.8023 30.9514 25.0787 30.9514 25.4357C30.9514 25.8477 31.2508 26.187 31.628 26.2023C32.9805 26.2576 33.4757 26.0583 33.4757 25.4586C33.4757 24.9744 33.1536 24.7006 32.5421 24.6651C32.2663 24.6491 31.8897 24.6672 31.7052 24.7053ZM28.5431 26.1273C28.1288 26.3519 27.5279 27.1854 27.5279 27.5355C27.5279 27.9392 27.8594 28.2459 28.2956 28.2459C28.5913 28.2459 28.7337 28.1526 29.1774 27.6676C29.7919 26.9962 29.8614 26.6297 29.4518 26.2207C29.162 25.9311 28.9459 25.9089 28.5431 26.1273ZM27.113 29.6674C26.7065 29.8141 26.5943 30.0334 26.5943 30.6815C26.5943 31.4311 26.7463 31.9392 27.0133 32.0819C27.3229 32.2474 27.7205 32.1983 27.9534 31.9657C28.1456 31.7737 28.167 31.6514 28.1343 30.9317C28.1048 30.2834 28.0546 30.0746 27.8904 29.9168C27.6518 29.6877 27.3368 29.5867 27.113 29.6674ZM28.3775 33.5344C28.0127 33.8739 28.0739 34.3485 28.5394 34.7891C29.3481 35.5545 29.6858 35.6565 30.1649 35.2799C30.3909 35.1025 30.4378 34.99 30.4124 34.6878C30.3857 34.3727 30.285 34.2378 29.7636 33.819C29.0803 33.2702 28.737 33.1997 28.3775 33.5344ZM32.406 34.7993C31.6789 35.061 31.712 35.9571 32.458 36.2074C32.9767 36.3816 33.9105 36.3011 34.1781 36.0594C34.4438 35.8191 34.4421 35.1776 34.1751 34.9361C33.9179 34.7036 32.892 34.6243 32.406 34.7993ZM36.5902 34.7419C36.0377 34.8498 35.8064 35.6279 36.2076 36.0287C36.4804 36.3011 37.3935 36.3948 37.9515 36.2074C38.435 36.0452 38.6263 35.6748 38.4645 35.2141C38.3131 34.783 37.4687 34.5703 36.5902 34.7419ZM40.6673 34.7702C40.094 34.9539 39.8978 35.5749 40.2828 35.9876C40.7107 36.4463 42.0904 36.4196 42.4638 35.9455C42.7357 35.6003 42.7295 35.3676 42.4396 35.0311C42.2457 34.8059 42.0973 34.7514 41.5837 34.7171C41.242 34.6943 40.8296 34.7182 40.6673 34.7702ZM44.7512 34.8019C44.0238 35.0586 44.057 35.957 44.8032 36.2074C45.3599 36.3942 46.2744 36.3011 46.5459 36.0299C46.8032 35.7731 46.8027 35.2221 46.545 34.9742C46.2957 34.7342 45.2323 34.632 44.7512 34.8019ZM48.3875 35.8757C47.968 36.4084 48.1369 36.7725 49.0808 37.3704C49.6862 37.7539 50.059 37.7632 50.3434 37.402C50.7493 36.8868 50.6256 36.5553 49.825 36.0122C49.0971 35.5185 48.6986 35.4807 48.3875 35.8757ZM51.3905 38.6379C50.8475 38.9107 50.8213 39.3412 51.2823 40.4153C51.5912 41.1352 52.2947 41.2379 52.6987 40.622C52.8733 40.356 52.871 40.3196 52.6374 39.6341C52.3094 38.6722 51.9283 38.3676 51.3905 38.6379ZM51.7124 42.7264C51.4396 42.9535 51.1172 44.1427 51.2189 44.547C51.2667 44.7376 51.4028 44.8843 51.6143 44.973C52.2127 45.2243 52.5602 44.9624 52.7943 44.0839C53.0003 43.3112 52.9824 43.0915 52.6899 42.7994C52.3908 42.5006 52.0171 42.4726 51.7124 42.7264ZM49.8605 46.2385C49.3928 46.4677 48.6912 47.2546 48.6912 47.55C48.6912 47.8858 49.1024 48.244 49.4879 48.244C49.8732 48.244 50.8125 47.521 50.954 47.1155C51.189 46.442 50.5277 45.9114 49.8605 46.2385ZM10.1784 47.2412C11.7965 48.7702 12.5933 49.3837 12.9612 49.3837C13.3518 49.3837 13.9902 48.9086 15.6144 47.4091L16.6166 46.4838L17.5335 46.7492C19.4144 47.2937 20.5773 48.0702 20.5773 48.7819C20.5773 49.833 18.1796 50.9546 15.1843 51.3045C14.4709 51.3879 13.5068 51.4561 13.0417 51.4561C11.3713 51.4561 9.0372 51.1133 7.86897 50.6964C6.44533 50.1883 5.32731 49.3682 5.32731 48.8319C5.32731 48.1677 6.65903 47.2487 8.3411 46.7522C8.82318 46.6099 9.25309 46.491 9.29655 46.488C9.33992 46.485 9.73673 46.8239 10.1784 47.2412ZM45.7623 47.9235C45.0986 48.0066 44.8316 48.2486 44.8726 48.73C44.9248 49.3412 45.2772 49.5283 46.2016 49.4356C47.0775 49.3477 47.3425 49.1568 47.3425 48.6142C47.3425 48.3539 47.2695 48.2016 47.0692 48.0443C46.7924 47.8267 46.6445 47.8131 45.7623 47.9235ZM33.0262 48.0013C32.488 48.2174 32.3244 48.89 32.715 49.2801C32.8879 49.4529 33.0608 49.4874 33.7524 49.4874C34.7197 49.4874 34.9973 49.3176 34.9973 48.7263C34.9973 48.1951 34.7038 47.996 33.8745 47.9648C33.4935 47.9505 33.1118 47.9669 33.0262 48.0013ZM37.0017 48.0563C36.5028 48.2972 36.4748 49.1198 36.9566 49.3774C37.0697 49.4379 37.5073 49.4874 37.929 49.4874C38.5964 49.4874 38.725 49.4563 38.9214 49.2476C39.2206 48.9294 39.2089 48.5037 38.8923 48.1875C38.6701 47.9654 38.5481 47.934 37.9327 47.9402C37.545 47.944 37.1261 47.9962 37.0017 48.0563ZM40.9578 48.1875C40.8177 48.3274 40.7031 48.5626 40.7031 48.7102C40.7031 48.8579 40.8177 49.0931 40.9578 49.233C41.1794 49.4544 41.3061 49.4874 41.9348 49.4874C42.3321 49.4874 42.7328 49.4584 42.8251 49.423C43.0784 49.3259 43.3109 48.8033 43.2351 48.5014C43.1276 48.0738 42.8148 47.9331 41.972 47.9331C41.3037 47.9331 41.1817 47.9637 40.9578 48.1875ZM24.5915 48.1518C24.0927 48.4417 24.1934 49.286 24.75 49.4798C25.4806 49.7343 26.5777 49.5356 26.7373 49.12C26.8624 48.7945 26.7991 48.4848 26.5617 48.262C26.3588 48.0716 26.202 48.0372 25.5502 48.0398C25.1259 48.0416 24.6946 48.092 24.5915 48.1518ZM28.5694 48.2635C28.3007 48.5516 28.2988 48.9705 28.5649 49.2558C28.9922 49.7139 30.3043 49.6941 30.718 49.2233C31.0079 48.8933 31.0127 48.6606 30.7363 48.3098C30.5347 48.0536 30.4677 48.0367 29.6511 48.0367C28.8895 48.0367 28.7545 48.065 28.5694 48.2635Z" fill="black"/>
</svg>
