<?xml version="1.0" encoding="UTF-8"?>
<svg xmlns="http://www.w3.org/2000/svg" viewBox="-11.2 -11.2 54.4 54.4" xml:space="preserve" fill="#5c9eff" stroke="#5c9eff" stroke-width="0"><path d="M16 36.658c2.864 1.183 6.74 1.884 9.195-.007 2.678-2.062 1.059-6.877 3.173-9.515 1.946-2.427 5.845-2.315 8.062-4.498 2.691-2.651 7.268-5.84 6.071-9.423-1.362-4.076-9.167-2.263-11.234-6.03-2.138-3.893 3.655-9.845.7-13.162-2.592-2.908-7.704 1.84-11.514 1.029-3.813-.812-6.218-5.959-10.103-5.633-3.723.313-5.58 4.784-8.439 7.19-2.68 2.255-6.696 3.387-7.998 6.64-1.328 3.318 1.581 7.002 1.12 10.547-.476 3.66-4.21 6.59-3.827 10.26.374 3.6 2.4 7.867 5.833 9.017 4.134 1.385 8.338-3.646 12.622-2.835 2.988.565 3.528 5.26 6.339 6.42" fill="#5c9eff21" stroke="none"/><g stroke-linecap="round" stroke-linejoin="round"/><g fill="none" stroke-width="9" stroke-linecap="round" stroke-linejoin="round"><path d="m365.838 387.051-27.056-27.056m21.047-21.379 27.333 27.333M227.535 194.5h9.965c22.091 0 40 17.909 40 40v56c0 7.732-6.268 14-14 14h-112c-7.732 0-14-6.268-14-14v-56c0-22.091 17.909-40 40-40h9.965" style="stroke-width:9;stroke-linecap:round;stroke-linejoin:round;stroke-miterlimit:10" data-original="#000000" transform="scale(.07)"/><path d="m221.298 199.116 6.149 48.77a11.235 11.235 0 0 1-4.056 10.121l-12.03 9.788a6.116 6.116 0 0 1-7.721 0l-12.03-9.788a11.234 11.234 0 0 1-4.056-10.121l6.2-49.18" style="stroke-width:9;stroke-linecap:round;stroke-linejoin:round;stroke-miterlimit:10" data-original="#000000" transform="scale(.07)"/><path d="M173.969 167.032v-23c0-18.519 15.012-33.531 33.531-33.531h0c18.519 0 33.531 15.012 33.531 33.531v22.874c0 18.554-15.041 33.594-33.594 33.594h0c-18.484 0-33.468-14.984-33.468-33.468zm1.364-19.657h64" style="stroke-width:9;stroke-linecap:round;stroke-linejoin:round;stroke-miterlimit:10" data-original="#000000" transform="scale(.07)"/><path d="M60.8 343.44C27.722 307.76 7.5 259.991 7.5 207.5c0-110.457 89.543-200 200-200 44.84 0 86.233 14.756 119.589 39.678m-83.145 357.01a201.111 201.111 0 0 1-38.055 3.306m201.588-196.931c-1.269 84.505-54.948 156.308-129.976 184.344" style="stroke-width:9;stroke-linecap:round;stroke-linejoin:round;stroke-miterlimit:10" data-original="#000000" transform="scale(.07)"/><path d="M104.766 342.864C63.917 311.786 37.5 262.67 37.5 207.5c0-93.738 76.262-170 170-170 37.269 0 71.775 12.055 99.825 32.47m70.15 140.474C375.898 302.83 300.255 377.5 207.5 377.5c-.538 0-1.075-.003-1.611-.008m280.143 57.143 13.679 13.679c6.386 6.386 6.386 16.739 0 23.125l-28.272 28.272c-6.386 6.386-16.739 6.386-23.125 0l-13.346-13.346m-58.75-58.75-13.132-13.132c-6.386-6.386-6.386-16.739 0-23.125l28.272-28.272c6.386-6.386 16.739-6.386 23.125 0l12.799 12.799m-1.655 109.949-49.294-49.294a5.33 5.33 0 0 1 0-7.539l52.668-52.668a5.33 5.33 0 0 1 7.539 0l49.294 49.294a5.33 5.33 0 0 1 0 7.539l-52.668 52.668a5.33 5.33 0 0 1-7.539 0zm-4.294-437.413h26.217c11.25 0 20.371 9.12 20.371 20.371V188.05c0 11.25-9.12 20.371-20.371 20.371H328.291c-11.25 0-20.371-9.12-20.371-20.371V68.792c0-11.25 9.12-20.371 20.371-20.371H385M183.8 504.5H64.541c-11.25 0-20.371-9.12-20.371-20.371V364.871c0-11.25 9.12-20.371 20.371-20.371H183.8c11.25 0 20.371 9.12 20.371 20.371v119.258c0 11.251-9.121 20.371-20.371 20.371z" style="stroke-width:9;stroke-linecap:round;stroke-linejoin:round;stroke-miterlimit:10" data-original="#000000" transform="scale(.07)"/><path d="m352.851 127.151 28.667 22.421 41.472-45.754M85.171 394.5h56.045m-56.045 30h87.496m-87.496 30h68.711" style="stroke-width:9;stroke-linecap:round;stroke-linejoin:round;stroke-miterlimit:10" data-original="#000000" transform="scale(.07)"/></g></svg>