<?xml version="1.0" encoding="UTF-8"?>
<svg fill="#f8b775" xmlns="http://www.w3.org/2000/svg" width="172" height="172" viewBox="-11.21 -11.21 81.44 81.44" xml:space="preserve" stroke="#f8b775" stroke-width=".001"><path d="M29.51 64.594c4.856.513 9.37-2.138 14.054-3.519 5.216-1.538 11.802-.97 15.297-5.138 3.524-4.201 2.39-10.596 2.498-16.079.09-4.592-1.856-8.9-1.919-13.494-.07-5.086 3.674-10.404 1.53-15.017-2.102-4.519-8.167-5.426-12.318-8.184-4-2.656-7.381-6.17-11.867-7.88-4.8-1.832-10.26-4.23-15.058-2.39-4.939 1.894-5.778 8.953-10.08 12.031C7.304 8.032.027 6.356-3.12 10.671c-3.05 4.182.32 10.254-.614 15.345-1.019 5.557-6.829 10.574-5.126 15.961 1.699 5.372 8.598 7.036 13.352 10.06 3.9 2.478 8.097 4.13 12.227 6.202 4.302 2.16 8.004 5.85 12.791 6.355" fill="#f8b77521" stroke="none"/><g stroke-linecap="round" stroke-linejoin="round"/><path d="M40.637 14.885h1.12a1 1 0 1 0 0-2h-1.12a1 1 0 1 0 0 2zm4.799 0h1.121a1 1 0 0 0 0-2h-1.121a1 1 0 0 0 0 2zm-9.6 0h1.12a1 1 0 1 0 0-2h-1.12a1 1 0 1 0 0 2z"/><path d="M54.184 12.598a.997.997 0 0 0-1.414 0l-2.457 2.456V10.48a1 1 0 0 0-1-1H1a1 1 0 0 0-1 1v38.064a1 1 0 0 0 1 1h48.312a1 1 0 0 0 1-1V26.982l8.42-8.42a.997.997 0 0 0 0-1.414l-4.548-4.55zM40.963 29.416a1 1 0 0 0 .952.952l3.593.17v14.104H4.805V18.226h40.703v1.632l-4.458 4.46a1.005 1.005 0 0 0-.292.754l.205 4.344zm7.349 18.129H2V11.48h46.312v5.573l-.806.805v-.633a1 1 0 0 0-1-1H3.805a1 1 0 0 0-1 1V45.64a1 1 0 0 0 1 1h42.703a1 1 0 0 0 1-1V29.787l.807-.806v18.563h-.003zm-1.769-19.621-.632.632-2.993-.143-.143-2.994.82-.82 9.881-9.88 3.135 3.137-10.068 10.068z"/><path d="M39.02 22.734H8.797a1 1 0 0 0-1 1v5.842a1 1 0 0 0 1 1H39.02a1 1 0 0 0 1-1v-5.842a1 1 0 0 0-1-1zm-1 5.842H9.797v-3.842H38.02v3.842zm-19.669 4.103H8.797a1 1 0 0 0-1 1v8.385a1 1 0 0 0 1 1h9.554a1 1 0 0 0 1-1v-8.385a1 1 0 0 0-1-1zm-1 8.384H9.797v-6.385h7.554v6.385zm21.669-8.384H22.64a1 1 0 1 0 0 2h16.38a1 1 0 0 0 0-2zm0 5.46H22.64a1 1 0 1 0 0 2h16.38a1 1 0 0 0 0-2z"/></svg>