<?xml version="1.0" encoding="UTF-8"?>
<svg fill="#5c9eff" xmlns="http://www.w3.org/2000/svg" viewBox="-204.8 -204.8 921.6 921.6" xml:space="preserve" stroke="#5c9eff"><path d="M256 621.741c75.07 8.491 161.246 24.364 220.974-21.899 59.618-46.178 52.905-136.422 76.077-208.183 20.137-62.364 47.675-120.273 51.111-185.717 4.067-77.46 19.225-165.712-29.492-226.071-48.794-60.455-137.555-70.952-215.018-76.876-67.577-5.169-128.035 29.688-193.914 45.6C95.644-34.478 13.218-49.143-40-.486c-54.244 49.598-72.807 129.999-72.527 203.499.262 68.577 43.017 126.313 74.019 187.483C-8.844 449.024 13.367 512.72 64.975 553.24c54.304 42.64 122.419 60.74 191.025 68.5" fill="#5c9eff21" stroke="none"/><g stroke-linecap="round" stroke-linejoin="round"/><path d="M170.489 162.472h-8.551a8.017 8.017 0 0 0 0 16.034h8.551a8.017 8.017 0 0 0 0-16.034zm94.062 0H256a8.017 8.017 0 0 0 0 16.034h8.551a8.017 8.017 0 0 0 0-16.034z"/><path d="M332.208 146.281C328.519 83.86 276.575 34.205 213.244 34.205H93.528c-5.129 0-9.025 4.977-7.777 9.961l6.061 24.244H67.875c-5.599 0-9.545 5.871-7.416 11.061.258.63 13.316 32.437 28.389 68.615-12.09 5.2-20.438 17.278-20.438 30.954 0 18.566 15.105 33.67 33.67 33.67a33.7 33.7 0 0 0 12.885-2.571c5.622 13.155 10.544 24.46 14.026 32.088 1.52 3.33 5.231 5.243 8.825 4.537 3.383-.664 6.021-3.503 6.423-6.931 19.476 15.51 43.87 24.183 69.006 24.183 25.139 0 49.536-8.674 69.013-24.189a8.005 8.005 0 0 0 4.804 6.444 8.017 8.017 0 0 0 8.695-1.591c9.129-8.762 16.932-19.954 22.965-32.457 1.871.319 3.77.485 5.688.485 18.566 0 33.67-15.104 33.67-33.67-.001-15.636-10.922-29.196-25.872-32.757zm-230.129 50.395c-9.725 0-17.637-7.912-17.637-17.637 0-7.121 4.313-13.415 10.578-16.165a8146.097 8146.097 0 0 0 13.672 32.513 17.546 17.546 0 0 1-6.613 1.289zm180.109 21.474c-17.824 18.963-42.919 29.833-68.944 29.833-26.023 0-51.119-10.87-68.944-29.833v-82.401h137.887v82.401zm16.033-1.833v-88.585a8.017 8.017 0 0 0-8.017-8.017h-153.92a8.017 8.017 0 0 0-8.017 8.017v72.733c-16.712-39.201-38.973-93.077-48.426-116.023h22.238c5.129 0 9.025-4.977 7.777-9.961l-6.061-24.244h109.448c56.876 0 103.148 46.272 103.148 103.148.002 22.141-6.816 45.028-18.17 62.932zm26.864-19.675c3.666-10.796 6.067-22.151 6.954-33.487 5.948 2.877 10.007 8.988 10.007 15.885 0 9.497-7.551 17.243-16.961 17.602z"/><path d="M235.157 198.28a8.017 8.017 0 0 0-11.223 1.603c-3.962 5.284-10.416 5.344-10.689 5.344-6.607 0-10.524-5.124-10.688-5.342a8.017 8.017 0 0 0-12.83 9.616c1.472 1.964 9.524 11.76 23.517 11.76 2.454 0 15.123-.567 23.516-11.758a8.017 8.017 0 0 0-1.603-11.223zM418.472 0c-17.419 0-34.163 5.234-48.422 15.138a8.017 8.017 0 0 0 9.145 13.169c11.561-8.03 25.143-12.273 39.276-12.273 38.015 0 68.944 30.928 68.944 68.944s-30.928 68.944-68.944 68.944-68.944-30.928-68.944-68.944c0-9.101 1.742-17.939 5.18-26.271a8.016 8.016 0 0 0-4.354-10.468 8.016 8.016 0 0 0-10.468 4.354c-4.241 10.281-6.392 21.177-6.392 32.385 0 46.856 38.121 84.977 84.977 84.977s84.977-38.121 84.977-84.977S465.328 0 418.472 0z"/><path d="M418.472 25.653c-32.711 0-59.324 26.612-59.324 59.324 0 32.711 26.612 59.324 59.324 59.324 32.711 0 59.324-26.612 59.324-59.324-.001-32.711-26.613-59.324-59.324-59.324zm0 102.614c-23.87 0-43.29-19.42-43.29-43.29s19.42-43.29 43.29-43.29c23.871 0 43.29 19.42 43.29 43.29s-19.42 43.29-43.29 43.29z"/><path d="m448.573 95.408-22.084-14.722V59.324a8.017 8.017 0 0 0-16.034 0v25.653a8.013 8.013 0 0 0 3.57 6.67l25.653 17.102c3.928 2.619 9.406 1.191 11.572-2.994 1.853-3.578.674-8.113-2.677-10.347zm55.41 331.793a8.017 8.017 0 0 0 8.017-8.017v-69.122a8.017 8.017 0 0 0-8.017-8.017h-64.668v-9.086c0-13.851-11.268-25.119-25.119-25.119h-34.205c-13.851 0-25.119 11.268-25.119 25.119v9.086h-5.344v-34.739c0-23.281-18.941-42.221-42.221-42.221H119.182c-23.281 0-42.221 18.941-42.221 42.221v35.128C33.851 346.489 0 382.871 0 427.023 0 473.879 38.121 512 84.977 512h102.614a8.017 8.017 0 0 0 0-16.034h-53.026c21.412-15.444 35.389-40.585 35.389-68.944 0-44.152-33.851-80.534-76.96-84.588v-35.128c0-14.44 11.748-26.188 26.188-26.188h54.43l14.33 35.825-16.864 143.347a8.016 8.016 0 0 0 4.377 8.107l34.205 17.102a8.083 8.083 0 0 0 7.17 0l34.205-17.102a8.014 8.014 0 0 0 4.377-8.107l-16.864-143.347 14.33-35.825h54.43c14.44 0 26.188 11.748 26.188 26.188v34.739h-43.29a8.017 8.017 0 0 0-8.017 8.017v145.904h-52.197a8.017 8.017 0 0 0 0 16.034h273.993a8.017 8.017 0 0 0 8.017-8.017v-42.756a8.017 8.017 0 0 0-16.034 0v34.739H298.221V391.168l69.478 31.376v21.581a8.017 8.017 0 0 0 8.017 8.017h42.756a8.017 8.017 0 0 0 8.017-8.017v-21.229l69.478-30.443v26.732a8.016 8.016 0 0 0 8.016 8.016zm-350.062-.178c0 38.015-30.928 68.944-68.944 68.944s-68.944-30.928-68.944-68.944 30.928-68.944 68.944-68.944 68.944 30.929 68.944 68.944zm81.687-145.904-10.689 26.722h-23.35l-10.689-26.722h44.728zm3.22 175.455-25.584 12.794-25.585-12.792 15.611-132.7h19.947l15.611 132.698zM370.906 332.96c0-5.01 4.076-9.086 9.086-9.086h34.205c5.01 0 9.086 4.076 9.086 9.086v9.086h-52.376v-9.086zm39.549 103.149h-26.722v-18.171h26.722v18.171zm14.929-30.235a8.004 8.004 0 0 0-6.913-3.97h-42.756a8.007 8.007 0 0 0-6.711 3.637l-70.784-31.966v-15.496h197.745v16.868l-70.581 30.927z"/><path d="M84.977 419.006c-5.01 0-9.086-3.808-9.086-8.818s4.076-8.818 9.086-8.818h17.102a8.017 8.017 0 0 0 0-16.034h-9.62v-9.62a8.017 8.017 0 0 0-16.034 0v10.405c-9.62 3.354-16.835 12.752-16.835 23.8 0 13.851 11.402 25.119 25.253 25.119 5.01 0 9.153 4.343 9.153 9.353s-4.008 9.353-9.019 9.353H67.875a8.017 8.017 0 0 0 0 16.034h8.551v8.551a8.017 8.017 0 0 0 16.034 0v-10.405c10.689-3.354 17.37-12.752 17.37-23.8-.001-13.851-11.002-25.12-24.853-25.12z"/></svg>