<?xml version="1.0" encoding="UTF-8"?>
<svg fill="#7468f1" xmlns="http://www.w3.org/2000/svg" viewBox="-204.8 -204.8 921.6 921.6" xml:space="preserve" stroke="#7468f1"><path d="M256 573.484c63.441-6.188 128.941.722 184.994-29.628 58.356-31.597 97.92-86.316 133.083-142.596 39.502-63.226 93.739-129.152 82.77-202.893-10.964-73.715-81.999-121.014-138.225-169.93-49.588-43.14-107.264-70.002-167.582-96.115-68.8-29.784-136.776-84.095-209.833-67.273C67.83-118.055 17.242-48.344-19.17 17.564c-32.39 58.63-20.868 128.208-31.267 194.377-10.574 67.284-47.58 131.975-30.376 197.876 18.415 70.542 61.504 140.676 127.077 172.54 64.238 31.213 138.652-1.94 209.736-8.873" fill="#7468f121" stroke="none"/><g stroke-linecap="round" stroke-linejoin="round"/><path d="M500.747 47.824H11.253C5.039 47.824 0 52.862 0 59.077v315.077c0 6.215 5.039 11.253 11.253 11.253h196.923v56.264h-78.168c-6.214 0-11.253 5.038-11.253 11.253s5.039 11.253 11.253 11.253h251.985c6.214 0 11.253-5.038 11.253-11.253s-5.039-11.253-11.253-11.253h-78.168v-56.264h37.66v18.004c0 6.215 5.039 11.253 11.253 11.253s11.253-5.038 11.253-11.253v-18.004h22.505v18.004c0 6.215 5.039 11.253 11.253 11.253s11.253-5.038 11.253-11.253v-18.004h22.505v18.004c0 6.215 5.039 11.253 11.253 11.253s11.253-5.038 11.253-11.253v-18.004h46.736c6.214 0 11.253-5.038 11.253-11.253V59.077c-.002-6.215-5.041-11.253-11.255-11.253zM281.319 441.67h-50.637v-56.264h50.637v56.264zm208.176-78.769H22.505V70.33h466.989v292.571z"/><path d="M56.265 340.396h399.473c6.214 0 11.253-5.038 11.253-11.253V104.088c0-6.215-5.039-11.253-11.253-11.253H56.265c-6.214 0-11.253 5.038-11.253 11.253v225.055c0 6.215 5.039 11.253 11.253 11.253zm11.253-225.055h376.967V317.89H67.518V115.341z"/><path d="M108.589 171.261h7.315c6.214 0 11.253-5.038 11.253-11.253s-5.039-11.253-11.253-11.253h-7.315c-6.214 0-11.253 5.038-11.253 11.253s5.039 11.253 11.253 11.253zm135.558-22.505h-92.835c-6.214 0-11.253 5.038-11.253 11.253s5.039 11.253 11.253 11.253h92.835c6.214 0 11.253-5.038 11.253-11.253s-5.039-11.253-11.253-11.253zm31.847 68.49h-7.314c-6.214 0-11.253 5.038-11.253 11.253s5.039 11.253 11.253 11.253h7.314c6.214 0 11.253-5.038 11.253-11.253s-5.039-11.253-11.253-11.253zm128.242 0h-92.835c-6.214 0-11.253 5.038-11.253 11.253s5.039 11.253 11.253 11.253h92.835c6.214 0 11.253-5.038 11.253-11.253s-5.038-11.253-11.253-11.253zm-211.007-23.479h-84.64c-6.214 0-11.253 5.038-11.253 11.253s5.039 11.253 11.253 11.253h84.64c6.214 0 11.253-5.038 11.253-11.253s-5.039-11.253-11.253-11.253zm211.007 68.49h-84.639c-6.214 0-11.253 5.038-11.253 11.253s5.039 11.253 11.253 11.253h84.639c6.214 0 11.253-5.038 11.253-11.253s-5.038-11.253-11.253-11.253z"/></svg>