<?xml version="1.0" encoding="UTF-8"?>
<svg fill="#7ddec8" xmlns="http://www.w3.org/2000/svg" viewBox="-16.8 -16.8 93.6 93.6" xml:space="preserve" stroke="#7ddec8" stroke-width=".001"><path d="M30 72.022c10.4-1.04 17.541-9.71 24.669-17.353C61.433 47.415 67.909 39.836 69.184 30c1.464-11.277 1.714-24.914-7.16-32.024-8.661-6.94-20.936.126-32.024.624C19.841-.943 8.939-5.273.732.732-8.3 7.339-12.753 18.81-12.92 30c-.169 11.345 4.66 22.215 12.767 30.153C7.87 68.01 18.827 73.14 30 72.023" fill="#7ddec821" stroke="none"/><g stroke-linecap="round" stroke-linejoin="round"/><path d="M19 26h2v2h-2zm0 4h2v2h-2z"/><path d="M19 13h2c2.8 0 5-2.2 5-5V5c0-2.8-2.2-5-5-5h-2c-2.8 0-5 2.2-5 5v3c0 2.8 2.2 5 5 5zm-3-8c0-1.7 1.3-3 3-3h2c1.7 0 3 1.3 3 3v3c0 1.7-1.3 3-3 3h-2c-1.7 0-3-1.3-3-3V5zm43 29H32V21c0-3.9-3.1-7-7-7H15c-3.9 0-7 3.1-7 7v13H1c-.6 0-1 .4-1 1v6c0 .6.4 1 1 1h3v18h2V42h44v-2H2v-4h56v4h-3c-.6 0-1 .4-1 1v19h2V42h3c.6 0 1-.4 1-1v-6c0-.6-.4-1-1-1zM21.7 16l-1.6 4.2-1.6-4.2h3.2zM10 21c0-2.8 2.2-5 5-5h1.3l2.8 7.4c.1.3.5.6.9.6s.8-.3 1.1-.6l2.8-7.4H25c2.8 0 5 2.2 5 5v13h-3V24h-2v10H15V24h-2v10h-3V21z"/><path d="M59 3H35c-.6 0-1 .4-1 1v14c0 .6.4 1 1 1h5v4c0 .4.2.8.6.9.1.1.3.1.4.1.3 0 .5-.1.7-.3l4.7-4.7H59c.6 0 1-.4 1-1V4c0-.6-.4-1-1-1zm-1 14H46c-.3 0-.5.1-.7.3L42 20.6V18c0-.6-.4-1-1-1h-5V5h22v12z"/><path d="M39 8h6v2h-6zm8 0h6v2h-6zm-8 4h16v2H39zm-4 35H25c-.6 0-1 .4-1 1v6c0 .6.4 1 1 1h10c.6 0 1-.4 1-1v-6c0-.6-.4-1-1-1zm-1 6h-8v-4h8v4zm6-5h2v2h-2zm4 0h2v2h-2zm4 0h2v2h-2zm-8 4h2v2h-2zm4 0h2v2h-2zm4 0h2v2h-2zm-38-4h2v2h-2zm4 0h2v2h-2zm4 0h2v2h-2zm-8 4h2v2h-2zm4 0h2v2h-2zm4 0h2v2h-2z"/></svg>