<?xml version="1.0" encoding="UTF-8"?>
<svg viewBox="-33.75 -33.75 202.5 202.5" fill="none" xmlns="http://www.w3.org/2000/svg" stroke="#9ea9bd" stroke-width=".001"><path d="M67.5 142.916c16.954 4.151 34.771 19.7 50.174 11.487 15.227-8.118 13.132-31.064 17.737-47.695 3.594-12.98 4.793-25.827 6.324-39.208 1.73-15.119 8.261-30.375 3.282-44.755-5.247-15.155-15.446-32.184-31.111-35.622C97.346-16.512 83.79 1.03 67.5 5.73c-10.894 3.144-22.093 1.85-33.152 4.348-15.095 3.412-32.764 2.117-43.736 13.03C-20.578 34.24-22.363 51.75-23.38 67.5c-1.06 16.413-2.338 35.068 8.035 47.83 10.35 12.736 29.53 12.362 45.1 17.546 12.567 4.185 24.881 6.89 37.746 10.04" fill="#9ea9bd21" stroke="none"/><g stroke-linecap="round" stroke-linejoin="round"/><g fill="#9ea9bd"><path d="M68.252 22.633c.25-.607.405-.808.403-1.008-.033-3.9.431-4.468 4.383-4.447a9.326 9.326 0 0 0 5.583-2.001c1.92-1.354 2.812-3.13 2.393-5.506a6.98 6.98 0 0 1-.189-2.321c.504-2.913 3.888-4.505 6.159-2.596 2.63 2.21 5.447 1.68 8.3 1.44a4.743 4.743 0 0 0 3.748-2.5c2.639-4.283 5.695-4.441 8.555-.356 2.023 2.888 5.124 2.934 8.008 3.637 1.08.263 2.243.197 3.32.466 2.616.656 3.312 1.578 3.451 4.233.201 3.826.819 4.572 4.493 5.396 1.095.245 2.214.403 3.289.714 3.182.918 4.352 3.617 2.845 6.552a6.108 6.108 0 0 1-1.341 1.918c-2.396 2-2.22 4.398-1.408 7.044a9.796 9.796 0 0 1 .519 3.91c-.262 2.178-1.125 2.801-3.321 3.093-2.109.28-2.109.28-3.232 1.293.826 5.791 1.733 11.415 2.404 17.064a458.412 458.412 0 0 1 1.76 18.05c.369 4.69.464 17.35.729 22.053.285 5.069-1.953 7.368-6.438 9.615a33.415 33.415 0 0 1-13.987 3.278c-11.322.394-22.652.53-33.978.755-12.002.239-24.003.436-36.004.697-7.846.17-15.69.534-23.537.604-7.064.066-10.205-2.542-11.88-9.397C1.844 98.421.82 85.733.754 79.638.628 67.977.37 56.316.293 44.655a89.45 89.45 0 0 1 .598-10.4c.732-6.625 4.706-9.804 11.433-10.484 17.472-1.767 34.983-.913 52.472-1.134 1.21-.018 2.414-.004 3.456-.004Zm48.36 31.071c-4.084-1.084-6.366-.27-8.889 3.294-2.852 4.034-6.314 3.9-8.753.491a3.55 3.55 0 0 0-4.224-1.287 11.129 11.129 0 0 0-3.26 1.79c-1.539 1.38-3.143 2.197-5.184 1.627-2.185-.61-2.114-2.643-2.567-4.336-.362-1.355-.769-2.699-1.3-4.55-1.807.882-3.207 1.48-4.523 2.226-1.661.943-3.26.932-4.694-.275a3.837 3.837 0 0 1-1.189-4.552c.383-1.05.693-2.135 1.071-3.19a5.263 5.263 0 0 0-.671-5.298c-1.933.362-4.01.426-5.439-1.354-1.491-1.86-.613-3.955.048-6.174-17.452.267-34.632-.59-51.95 1.227a4.292 4.292 0 0 0-3.89 4.074v.036c-.233 10.173-.516 20.346-.591 30.524-.053 5.548.179 11.095.695 16.619.253 2.641.481 8.31 1.176 12.87a6.338 6.338 0 0 0 6.394 5.35h.05c12.111-.223 24.22-.561 36.332-.663 16.949-.143 33.9-.046 50.849-.208 3.332-.032 6.671-.696 9.98-1.236a3.878 3.878 0 0 0 3.236-4.1c-.909-12.975-1.804-30.82-2.707-42.905Zm-25.46-5.663c3.73-1.516 7.22-1.615 10.71-.12a2.325 2.325 0 0 0 1.891-.312 21.026 21.026 0 0 1 10.733-3.873c.6-4.533 2.686-7.986 5.894-9.976v-8.532c-1.702-1.504-3.438-2.65-4.642-4.207-1.266-1.641-2.024-3.67-3.013-5.546-2.105-.62-4.397-.968-6.366-1.954-2.576-1.286-4.895-2.007-7.483-.173a5.112 5.112 0 0 1-2.256.587c-2.757.348-5.519.64-8.498.976-1.605 4.208-5.197 6.49-8.737 8.402l-1.825 8.919c3.643 2.347 4.246 6.255 4.573 10.344 3.963.391 7.278 1.571 9.02 5.465Z"/><path d="M40.342 58.918c9.303 0 18.608-.07 27.91.049a30.85 30.85 0 0 1 6.946 1.066c2.242.556 3.335 2.133 3.314 4.075a4.263 4.263 0 0 1-3.664 4.216 31.44 31.44 0 0 1-5.672.612c-7.62.094-15.24.088-22.86.117-3.258.013-6.519-.056-9.773.053-3.807.127-7.607.481-11.414.59a16.245 16.245 0 0 1-4.962-.493 4.385 4.385 0 0 1-3.056-4.372c.178-1.772 1.284-3.085 3.535-3.528 3.295-.653 6.629-1.18 9.968-1.522 3.229-.328 6.489-.345 9.735-.5a56.44 56.44 0 0 0-.007-.363Zm-2.685-6.411c-5.029-.276-10.057-.534-15.083-.846-.765-.047-1.748-.116-2.221-.586-.807-.802-1.786-1.938-1.768-2.918.019-.979 1.018-2.118 1.882-2.83.6-.495 1.694-.49 2.575-.526 6.378-.263 12.758-.46 19.137-.717 1.45-.058 2.896-.246 4.343-.382.442-.074.886-.125 1.333-.155 2.888.019 5.316 1.766 5.527 3.951.197 2.027-1.277 3.568-4.319 4.345-1.095.215-2.202.36-3.316.435a2.743 2.743 0 0 1-.337.003h-7.74l-.014.226Zm55.165 31.714c-3.11-.28-6.227-.502-9.324-.883a3.637 3.637 0 0 1-2.335-1.109c-.59-.813-1.111-2.105-.87-2.97.237-.854 1.36-1.697 2.284-2.057 1.107-.431 2.413-.384 3.637-.475 4.567-.342 9.133-.692 13.705-.95a11.24 11.24 0 0 1 2.969.418 3.106 3.106 0 0 1 2.577 3.105c.095 1.727-.624 3.143-2.336 3.662a24.702 24.702 0 0 1-4.913.959c-1.777.16-3.58.037-5.373.037l-.021.263Zm-2.919-48.546c.357-.624.782-2.007 1.7-2.863 3.764-3.513 7.638-6.912 11.57-10.235a6.383 6.383 0 0 1 3.084-1.218 3.856 3.856 0 0 1 4.14 5.437 8.961 8.961 0 0 1-2.458 3.12c-3.748 3.023-7.598 5.92-11.437 8.831a6.67 6.67 0 0 1-2.06 1.098c-2.375.705-4.588-1.033-4.539-4.17Zm7.375-13.915c.09 2.215-2.277 4.766-4.397 4.735-1.927-.027-4.14-2.257-4.163-4.197-.029-2.26 2.248-4.944 4.215-4.97 2.011-.028 4.257 2.265 4.345 4.433Zm7.628 15.026c-.159-2.276 1.976-4.61 4.318-4.72A4.279 4.279 0 0 1 113.462 36a4.922 4.922 0 0 1-4.023 4.695 4.148 4.148 0 0 1-4.114-2.303 4.153 4.153 0 0 1-.419-1.605Z"/></g></svg>