<?xml version="1.0" encoding="UTF-8"?>
<svg xmlns="http://www.w3.org/2000/svg" version="1.2" viewBox="0 0 256 211" width="28" height="23">
  <title>bitrise-svg</title>
  <style>
		.s0 { fill: #683d87 } 
	</style>
  <path id="Layer" fill-rule="evenodd" class="s0" d="m125.5 36h7.4c32 0.1 56.4 1.1 71.9 2.1l1.7 0.1c16.5 1 30.1 12.5 33.9 28.5l0.6 2.4c3 13.2 7 31.7 9.8 50.3l0.5 3.6c1.9 13 3.4 28.2 4.6 45.1 0.7 10.1-2.7 19.8-9.4 27.3-6.7 7.5-16 11.8-26.1 12.3l-6.4 0.3c-21.7 1-52.2 2-84.6 2h-5.7c-31.3-0.1-60.6-1.1-81.7-2l-6.4-0.3c-10.2-0.4-19.4-4.8-26.1-12.3-6.7-7.5-10.1-17.2-9.4-27.3l0.2-3.3c1.2-15.6 2.5-29.5 4.2-41.7l0.4-2.6c2.9-20.1 7.4-40.3 10.6-53.8 3.8-15.9 17.1-27.4 33.4-28.5l5.3-0.3c16.1-0.9 40.2-1.8 71.3-1.9zm5.1 17.5h-4.9c-34.1 0-59.5 1.1-75.1 2.1-8.8 0.7-15.9 6.6-17.9 15.2l-0.8 3.2c-3.1 13-7 31.2-9.5 49.1l-0.4 2.5c-1.9 12.5-3.3 27.2-4.4 43.7-0.3 5.3 1.4 10.4 5 14.4 3.6 3.9 8.4 6.2 13.8 6.5l8.4 0.3c21.3 1 50.6 1.9 81.8 2h5.7c34.4-0.1 66.2-1.4 87.3-2.3 5.4-0.3 10.2-2.6 13.8-6.5 3.4-4 5.2-9.1 5.2-14.4l-0.2-3.3c-1.3-16.2-2.7-30.6-4.5-42.9-2.9-19.5-7.3-39.2-10.3-52.3-2-8.6-9.3-14.7-18-15.2l-4.7-0.3c-15.8-0.9-39.6-1.8-70.3-1.8zm25.8 87.2c0 15.6-12.7 28.3-28.4 28.3-15.6 0-28.3-12.6-28.5-27.9v-0.4zm-92-35.3c9.6 0 17.3 7.7 17.5 17.2v0.4h-35.1c0-9.7 7.9-17.6 17.6-17.6zm127.2 0c9.7 0 17.4 7.7 17.6 17.2v0.4h-35.1c0-9.7 7.9-17.6 17.5-17.6zm-63.6-105.4c6.1 0 10.9 5 10.9 10.9 0 6-4.9 10.9-10.9 10.9-6 0-10.9-5-10.9-10.9 0-6.1 4.9-10.9 10.9-10.9z"></path>
</svg>
