<?xml version="1.0" encoding="UTF-8"?>
<svg xmlns="http://www.w3.org/2000/svg" version="1.2" viewBox="0 0 256 199" width="50" height="39">
  <title>cirrus-svg</title>
  <style>
		.s0 { fill: #2271ce } 
		.s1 { fill: #005eb6 } 
		.s2 { fill: #0099df } 
		.s3 { fill: #231f20 } 
	</style>
  <path id="Layer" class="s0" d="m162.6 141.3h-69.2v-124.4h69.2z"></path>
  <path id="Layer" class="s1" d="m97.8 79.1c0-25.2 11.8-47.7 30.2-62.2-13.5-10.6-30.4-16.9-48.9-16.9-43.7 0-79.1 35.4-79.1 79.1 0 43.7 35.4 79.1 79.1 79.1 18.5 0 35.4-6.3 48.9-16.9-18.4-14.5-30.2-36.9-30.2-62.2z"></path>
  <path id="Layer" class="s2" d="m256 79.1c0 43.7-35.4 79.1-79.1 79.1-18.5 0-35.4-6.3-48.9-16.9 18.4-14.5 30.2-36.9 30.2-62.2 0-25.2-11.8-47.7-30.2-62.2 13.5-10.6 30.4-16.9 48.9-16.9 43.7 0 79.1 35.4 79.1 79.1z"></path>
  <path id="Layer" fill-rule="evenodd" class="s3" d="m179.7 182.3c-1.2-0.8-3.8-1.8-6.5-1.8-2.5 0-4 1-4 2.5 0 1.4 1.6 1.8 3.5 2.1l2.2 0.3c4.6 0.6 7.3 2.6 7.3 6.3 0 4-3.5 6.8-9.6 6.8-3.4 0-6.5-0.9-9-2.7l2.1-3.6c1.5 1.2 3.8 2.2 7 2.2 3.1 0 4.8-0.9 4.8-2.5 0-1.2-1.2-1.9-3.7-2.2l-2.2-0.3c-4.7-0.7-7.2-2.8-7.2-6.2 0-4.2 3.4-6.8 8.7-6.8 3.4 0 6.4 0.8 8.6 2.2zm-94.7-5.8c3.1 0 5.2 0.7 7.5 2.5l-2.2 3.6c-1.7-1.2-3.5-1.8-5.5-1.8-3.6 0-6.3 2.6-6.3 6.7 0 4 2.7 6.7 6.3 6.7 2 0 3.8-0.7 5.5-1.9l2.2 3.7c-2.3 1.8-4.4 2.5-7.5 2.5-6.8 0-11.2-4.6-11.2-11 0-6.4 4.4-11 11.2-11zm36.1 0.5l-1.4 4.3c-1-0.4-2-0.5-2.9-0.5-3 0-4.5 1.9-4.5 5.4v11.8h-4.6v-21h4.6v2.5c1.2-1.8 2.9-3 5.5-3 0.9 0 2.3 0.1 3.3 0.5zm16.9 0l-1.4 4.3c-0.9-0.4-1.9-0.5-2.8-0.5-3 0-4.5 1.9-4.5 5.4v11.8h-4.6v-21h4.5v2.5c1.2-1.8 2.9-3 5.6-3 0.9 0 2.2 0.1 3.2 0.5zm-35.2 21h-4.6v-21h4.6zm-2.4-31.5q0.7 0 1.3 0.3 0.6 0.2 1 0.7 0.5 0.4 0.7 1 0.3 0.6 0.3 1.3 0 0.7-0.3 1.3-0.2 0.5-0.7 1-0.4 0.4-1 0.6-0.6 0.3-1.3 0.3-0.6 0-1.2-0.3-0.6-0.2-1.1-0.6-0.4-0.5-0.6-1-0.3-0.6-0.3-1.3 0-0.7 0.3-1.3 0.2-0.6 0.6-1 0.5-0.5 1.1-0.7 0.6-0.3 1.2-0.3zm60.3 22.6q0 2.5-0.8 4.3-0.8 1.8-2.2 2.9-1.3 1.2-3.1 1.7-1.7 0.6-3.5 0.6-1.8 0-3.5-0.6-1.8-0.5-3.1-1.7-1.4-1.1-2.2-2.9-0.8-1.8-0.8-4.3v-12.1h4.5v11.7q0 1.5 0.4 2.6 0.4 1 1.1 1.7 0.7 0.6 1.6 0.9 0.9 0.3 2 0.3 1.1 0 2-0.3 0.9-0.3 1.6-0.9 0.7-0.7 1.1-1.7 0.4-1.1 0.4-2.6v-11.7h4.5z"></path>
</svg>
