<?xml version="1.0" encoding="UTF-8"?>
<svg xmlns="http://www.w3.org/2000/svg" version="1.2" viewBox="0 0 91 90" width="28" height="28">
  <title>Codemagic-svg</title>
  <defs>
    <linearGradient id="g1" x2="1" gradientUnits="userSpaceOnUse" gradientTransform="matrix(90.006,0,0,90.011,.328,44.999)">
      <stop offset="0" stop-color="#ec0c43"></stop>
      <stop offset="1" stop-color="#ff9100"></stop>
    </linearGradient>
  </defs>
  <style>
		.s0 { fill: url(#g1) } 
	</style>
  <path id="Layer" fill-rule="evenodd" class="s0" d="m85.9 52l-22 10.9q-0.4 0.2-0.6 0.6l-10.9 22.1c-1.4 2.9-4.2 4.4-7 4.4-2.8 0-5.7-1.5-7.1-4.4l-10.9-22.1q-0.2-0.4-0.6-0.6l-22.1-10.8c-5.8-2.9-5.8-11.2 0-14.1l22.1-10.9q0.4-0.2 0.6-0.6l10.9-22.1c1.4-2.9 4.2-4.4 7-4.4 2.8 0 5.6 1.5 7.1 4.4l10.8 22.1q0.2 0.4 0.6 0.6l22.1 10.8c5.9 2.9 5.9 11.2 0 14.1zm-16.9-14.3l-13.3-2.6c-2.7-0.6-5.1-2-6.9-4l-9-10.2c-0.5-0.7-1.6-0.4-1.8 0.4l-2.6 13.4c-0.5 2.6-1.9 5.1-4 6.9l-10.2 8.9c-0.7 0.6-0.4 1.6 0.5 1.8l13.3 2.6c2.7 0.6 5.1 2 6.9 4l8.9 10.2c0.6 0.7 1.7 0.4 1.8-0.4l2.7-13.4c0.5-2.6 1.9-5.1 3.9-6.9l10.3-8.9c0.6-0.6 0.3-1.6-0.5-1.8z"></path>
</svg>
