<?xml version="1.0" encoding="UTF-8"?>
<svg xmlns="http://www.w3.org/2000/svg" version="1.2" viewBox="0 0 256 248" width="29" height="28">
  <title>fastlane-svg</title>
  <style>
		.s0 { fill: #0a7bff } 
		.s1 { fill: #eb3d00 } 
		.s2 { fill: #00bcd4 } 
		.s3 { fill: #86c351 } 
		.s4 { fill: #9032e9 } 
	</style>
  <path id="Layer" class="s0" d="m216.4 66c-10.7 0-20.4 4.2-27.5 11.1l-45.2-32.3q0.5-1.8 0.5-3.7c0-8.7-7.1-15.8-15.8-15.8-8.8 0-15.9 7.1-15.9 15.8 0 8.8 7.1 15.8 15.9 15.8 3 0 5.9-0.8 8.3-2.4l55.3 40.3c4.3-9 13.8-16 24.4-16 14.8 0 26.8 12 26.8 26.7 0 11.8-7.7 21.9-18.3 25.4l3.6 12.3c16-5.1 27.5-20 27.5-37.7 0-21.8-17.7-39.5-39.6-39.5z"></path>
  <path id="Layer" class="s1" d="m89.6 27.5c-3.3 10.2-2.2 20.7 2.3 29.6l-44.4 33.1q-1.6-0.9-3.4-1.5c-8.3-2.6-17.2 2-19.8 10.3-2.6 8.3 1.9 17.2 10.3 19.8 8.3 2.6 17.1-2 19.8-10.3 0.9-2.9 0.9-5.9 0.2-8.6l55-40.4c-7.3-6.8-11.1-18-7.8-28.1 4.4-14 19.4-21.8 33.5-17.3 11.2 3.5 18.4 13.8 18.6 25l12.8 0.2c-0.1-16.6-10.8-32.1-27.6-37.4-20.7-6.6-42.9 4.9-49.5 25.6z"></path>
  <path id="Layer" class="s2" d="m16.3 134.5c8.6 6.3 18.9 8.6 28.6 7.2l17.5 52.4q-1.4 1.1-2.5 2.6c-5.1 7-3.5 16.8 3.5 22 7.1 5.1 16.9 3.6 22-3.4 5.1-7 3.5-16.8-3.5-21.9-2.5-1.8-5.3-2.8-8.1-3l-21.1-64.6c-8.7 4.7-20.4 4.7-29-1.5-11.9-8.7-14.5-25.3-5.9-37.1 6.9-9.4 18.8-12.9 29.4-9.5l4.3-12c-15.8-5.2-33.8-0.1-44 14-12.8 17.4-8.8 42 8.8 54.8z"></path>
  <path id="Layer" class="s3" d="m218.8 196c-3.2-10.1-10.2-18-18.9-22.6l16.9-52.4q1.8-0.2 3.6-0.8c8.3-2.6 12.8-11.5 10.2-19.7-2.7-8.3-11.6-12.8-19.8-10.1-8.3 2.7-12.9 11.5-10.2 19.8 0.9 2.9 2.6 5.3 4.8 7.1l-21.3 64.4c9.8 1.4 19.4 8.2 22.6 18.2 4.5 13.9-3.2 28.9-17.2 33.4-11.2 3.6-23-0.5-29.6-9.4l-10.6 7.2c9.7 13.4 27.4 19.7 44.1 14.3 20.7-6.7 32.1-28.8 25.4-49.4z"></path>
  <path id="Layer" class="s4" d="m96.3 238.3c8.6-6.3 13.8-15.4 15.5-25.1l55.2-0.5q0.7 1.6 1.8 3.2c5.1 7 15 8.5 22 3.4 7-5.2 8.5-15 3.4-22-5.1-7-15-8.6-22-3.4-2.4 1.8-4.2 4.2-5.3 6.8l-67.9 0.2c1.8 9.7-1.7 20.9-10.3 27.1-11.8 8.7-28.4 6.1-37.1-5.7-6.9-9.5-6.7-22-0.3-31.1l-10.1-7.7c-9.8 13.4-10.2 32.2 0.1 46.3 12.8 17.5 37.4 21.3 55 8.5z"></path>
</svg>
