<?xml version="1.0" encoding="UTF-8"?>
<svg fill="#9ea9bd" xmlns="http://www.w3.org/2000/svg" viewBox="-196.15 -196.15 952.72 952.72" xml:space="preserve" stroke="#9ea9bd"><path d="M280.21 655.497c132.14 2.4 287.3 22.84 367.834-81.95 79.84-103.887 35.928-253.787-18.061-373.17-41.33-91.39-140.665-123.57-228.49-172.015-99.22-54.73-200.972-174.383-300.16-119.595C2.288-36.526 72.362 116.78 43.398 226.16 11.671 345.979-131.107 451.95-71.242 560.484c61.665 111.8 223.795 92.694 351.452 95.013" fill="#9ea9bd21" stroke="none"/><g stroke-linecap="round" stroke-linejoin="round"/><g stroke-width="20" transform="scale(.77)"><defs style="stroke-width:20"><clipPath id="a" clipPathUnits="userSpaceOnUse" stroke-width="20" style="stroke-width:20"><path d="M0 512h512V0H0Z" data-original="#000000" style="stroke-width:20"/></clipPath></defs><g clip-path="url(#a)" transform="matrix(1.33333 0 0 -1.33333 0 682.667)" style="stroke-width:20" fill="none" stroke-miterlimit="10"><path d="M0 0h-482v-60l49.468-6.059c5.057-27.015 15.595-52.081 30.558-73.934l-29.944-38.5 42.425-42.425 38.5 29.944c21.853-14.963 46.919-25.501 73.934-30.558L-271-271h60l6.059 49.468c27.015 5.057 52.081 15.595 73.934 30.558l38.5-29.944 42.425 42.425-29.944 38.5c14.963 21.853 25.501 46.919 30.558 73.934L0-60Z" style="stroke-width:20;stroke-linecap:butt;stroke-linejoin:miter;stroke-miterlimit:10;stroke-dasharray:none;stroke-opacity:1" transform="translate(497 286)" data-original="#000000"/><path d="M0 0v60h60V0" style="stroke-width:20;stroke-linecap:butt;stroke-linejoin:miter;stroke-miterlimit:10;stroke-dasharray:none;stroke-opacity:1" transform="translate(106 286)" data-original="#000000"/><path d="M0 0v151h60V0" style="stroke-width:20;stroke-linecap:butt;stroke-linejoin:miter;stroke-miterlimit:10;stroke-dasharray:none;stroke-opacity:1" transform="translate(226 286)" data-original="#000000"/><path d="M0 0v211h60V0" style="stroke-width:20;stroke-linecap:butt;stroke-linejoin:miter;stroke-miterlimit:10;stroke-dasharray:none;stroke-opacity:1" transform="translate(346 286)" data-original="#000000"/><path d="M0 0c0-66.274-53.726-120-120-120S-240-66.274-240 0" style="stroke-width:20;stroke-linecap:butt;stroke-linejoin:miter;stroke-miterlimit:10;stroke-dasharray:none;stroke-opacity:1" transform="translate(376 286)" data-original="#000000"/></g></g></svg>