<?xml version="1.0" encoding="UTF-8"?><svg fill="#f56a5d" xmlns="http://www.w3.org/2000/svg" viewBox="-20.28 -20.28 98.5 98.5" xml:space="preserve" stroke="#f56a5d"><path d="M28.97 63.117c12.88.766 28.565 5.134 36.438-5.088 7.838-10.176-.794-24.053-4.525-36.343-3.225-10.622-4.867-23.298-14.975-27.888-9.97-4.528-20.186 3.25-30.361 7.299-11.88 4.728-27.87 5.402-31.98 17.51-4.29 12.64 4.491 26.042 14.023 35.387 8.184 8.023 19.94 8.443 31.38 9.123" fill="#f56a5d21" stroke="none"/><g stroke-linecap="round" stroke-linejoin="round"/><g stroke-width="20" transform="scale(.075)"><defs style="stroke-width:20"><clipPath id="a" clipPathUnits="userSpaceOnUse" stroke-width="20" style="stroke-width:20"><path d="M0 512h512V0H0Z" data-original="#000000" style="stroke-width:20"/></clipPath></defs><path d="M0 0h348.307" style="stroke-width:20;stroke-linecap:round;stroke-linejoin:round;stroke-miterlimit:10;stroke-dasharray:none;stroke-opacity:1" transform="matrix(1.33333 0 0 -1.33333 109.129 67.958)" fill="none" stroke-linecap="round" stroke-linejoin="round" stroke-miterlimit="10" data-original="#000000"/><path d="M0 0h174.153" style="stroke-width:20;stroke-linecap:round;stroke-linejoin:round;stroke-miterlimit:10;stroke-dasharray:none;stroke-opacity:1" transform="matrix(1.33333 0 0 -1.33333 109.129 118.26)" fill="none" stroke-linecap="round" stroke-linejoin="round" stroke-miterlimit="10" data-original="#000000"/><g clip-path="url(#a)" transform="matrix(1.33333 0 0 -1.33333 0 682.667)" style="stroke-width:20" fill="none" stroke-linecap="round" stroke-linejoin="round" stroke-miterlimit="10"><path d="M0 0v11.479c0 18.65-15.118 33.768-33.768 33.768h-395.341c-18.649 0-33.768-15.118-33.768-33.768v-61.195c0-18.649 15.118-33.767 33.768-33.767h26.953c4.361 0 7.659-3.946 6.886-8.238l-7.616-42.288c-.672-3.733 3.816-6.154 6.567-3.543l54.933 52.146a6.997 6.997 0 0 0 4.817 1.923h210.261a7.003 7.003 0 0 0 4.818-1.923l54.932-52.146c2.751-2.611 7.24-.19 6.567 3.543l-7.615 42.288c-.774 4.292 2.525 8.238 6.885 8.238h26.953C-15.118-83.483 0-68.365 0-49.716v14.664" style="stroke-width:20;stroke-linecap:round;stroke-linejoin:round;stroke-miterlimit:10;stroke-dasharray:none;stroke-opacity:1" transform="translate(487.438 459.253)" data-original="#000000"/><path d="m0 0 5.589-26.764h24.633c12.88 0 23.32 10.442 23.32 23.321v15.22c0 8.11 3.754 15.763 10.166 20.728l26.136 20.237a39.88 39.88 0 0 1 15.464 31.53c0 22.024 17.853 39.877 39.877 39.877h5.024c18.005 0 32.602 14.597 32.602 32.602a4.437 4.437 0 0 1-4.438 4.437H72.819c-54.911 0-95.939-50.48-84.714-104.231l4.699-22.502" style="stroke-width:20;stroke-linecap:round;stroke-linejoin:round;stroke-miterlimit:10;stroke-dasharray:none;stroke-opacity:1" transform="translate(21.51 125.362)" data-original="#000000"/><path d="M0 0h-106.201c-6.296 0-11.401 5.104-11.401 11.4v13.472c0 6.729 5.796 11.993 12.494 11.349l106.2-10.224A11.4 11.4 0 0 0 11.4 14.649V11.4C11.4 5.104 6.296 0 0 0Z" style="stroke-width:20;stroke-linecap:round;stroke-linejoin:round;stroke-miterlimit:10;stroke-dasharray:none;stroke-opacity:1" transform="translate(126.832 7.5)" data-original="#000000"/><path d="M0 0h105.554c54.911 0 95.938-50.48 84.714-104.231l-17.485-83.721H148.15c-12.879 0-23.32 10.441-23.32 23.32v15.221a26.213 26.213 0 0 1-10.165 20.727l-26.137 20.238a39.876 39.876 0 0 0-15.463 31.53c0 22.023-17.853 39.877-39.877 39.877h-5.025c-18.005 0-32.6 14.597-32.6 32.602A4.436 4.436 0 0 0 0 0Z" style="stroke-width:20;stroke-linecap:round;stroke-linejoin:round;stroke-miterlimit:10;stroke-dasharray:none;stroke-opacity:1" transform="translate(312.117 286.55)" data-original="#000000"/><path d="M0 0h106.201c6.297 0 11.401 5.104 11.401 11.4v13.472c0 6.729-5.796 11.993-12.493 11.349L-1.092 25.997A11.4 11.4 0 0 1-11.4 14.649V11.4C-11.4 5.104-6.296 0 0 0Z" style="stroke-width:20;stroke-linecap:round;stroke-linejoin:round;stroke-miterlimit:10;stroke-dasharray:none;stroke-opacity:1" transform="translate(385.168 7.5)" data-original="#000000"/><path d="m0 0-1.852 11.704c-1.524 9.639 5.929 18.358 15.687 18.351l36.758-.026c11.511-.017 20.851 9.308 20.852 20.819l.002 34.458c.001 6.849 5.497 12.643 12.346 12.54 9.13-.139 15.212 9.355 11.292 17.585l-12.888 27.054a12.31 12.31 0 0 0-1.194 5.136l-.245 19.792c0 18.385-4.719 35.738-12.999 50.868" style="stroke-width:20;stroke-linecap:round;stroke-linejoin:round;stroke-miterlimit:10;stroke-dasharray:none;stroke-opacity:1" transform="translate(118.09 34.444)" data-original="#000000"/><path d="M0 0v-55.396" style="stroke-width:20;stroke-linecap:round;stroke-linejoin:round;stroke-miterlimit:10;stroke-dasharray:none;stroke-opacity:1" transform="translate(27.1 98.599)" data-original="#000000"/><path d="M0 0v55.396" style="stroke-width:20;stroke-linecap:round;stroke-linejoin:round;stroke-miterlimit:10;stroke-dasharray:none;stroke-opacity:1" transform="translate(484.9 43.203)" data-original="#000000"/><path d="M0 0a105.722 105.722 0 0 1-12.998-50.868l-.246-19.792a12.31 12.31 0 0 0-1.194-5.136l-12.888-27.055c-3.92-8.229 2.162-17.723 11.292-17.585 6.849.104 12.346-5.69 12.346-12.54l.002-34.458c.001-11.51 9.342-20.836 20.852-20.818l36.759.025c9.758.007 17.211-8.711 15.685-18.35l-1.851-11.704" style="stroke-width:20;stroke-linecap:round;stroke-linejoin:round;stroke-miterlimit:10;stroke-dasharray:none;stroke-opacity:1" transform="translate(326.15 252.726)" data-original="#000000"/></g></g></svg>