<?xml version="1.0" encoding="UTF-8"?><svg fill="#7ddec8" xmlns="http://www.w3.org/2000/svg" viewBox="-20.28 -20.28 98.5 98.5" xml:space="preserve" stroke="#7ddec8"><path d="M28.97 66.736c8.731 1.92 18.564 2.966 26.097-1.846 7.668-4.898 11.325-14.262 13.09-23.187 1.628-8.227-1.707-16.117-3.702-24.263-2.193-8.953-1.674-19.415-8.508-25.6-7.031-6.363-17.53-7.34-26.977-6.514-8.904.778-17.106 4.975-23.755 10.948C-.946 1.81-4.34 9.441-6.708 17.377c-2.315 7.758-4.726 16.256-1.43 23.65 3.193 7.16 11.757 9.503 18.2 13.967 6.252 4.331 11.48 10.109 18.908 11.742" fill="#7ddec821" stroke="none"/><g stroke-linecap="round" stroke-linejoin="round"/><g transform="scale(.08)" stroke-width="20"><defs style="stroke-width:20"><clipPath id="a" clipPathUnits="userSpaceOnUse" stroke-width="20" style="stroke-width:20"><path d="M0 512h512V0H0Z" data-original="#000000" style="stroke-width:20"/></clipPath></defs><path d="M0 0v57" style="stroke-width:20;stroke-linecap:butt;stroke-linejoin:miter;stroke-miterlimit:10;stroke-dasharray:none;stroke-opacity:1" transform="matrix(1.33333 0 0 -1.33333 71.958 617.833)" fill="none" stroke-miterlimit="10" data-original="#000000"/><path d="M0 0v47.625h105.125v-120" style="stroke-width:20;stroke-linecap:butt;stroke-linejoin:miter;stroke-miterlimit:10;stroke-dasharray:none;stroke-opacity:1" transform="matrix(1.33333 0 0 -1.33333 71.958 521.333)" fill="none" stroke-miterlimit="10" data-original="#000000"/><path d="M0 0v179.875h105.125V0" style="stroke-width:20;stroke-linecap:butt;stroke-linejoin:miter;stroke-miterlimit:10;stroke-dasharray:none;stroke-opacity:1" transform="matrix(1.33333 0 0 -1.33333 271.958 617.833)" fill="none" stroke-miterlimit="10" data-original="#000000"/><path d="M0 0v239.875h105.125v-92.438" style="stroke-width:20;stroke-linecap:butt;stroke-linejoin:miter;stroke-miterlimit:10;stroke-dasharray:none;stroke-opacity:1" transform="matrix(1.33333 0 0 -1.33333 471.958 617.833)" fill="none" stroke-miterlimit="10" data-original="#000000"/><path d="M0 0v-132.375" style="stroke-width:20;stroke-linecap:butt;stroke-linejoin:miter;stroke-miterlimit:10;stroke-dasharray:none;stroke-opacity:1" transform="matrix(1.33333 0 0 -1.33333 612.125 441.333)" fill="none" stroke-miterlimit="10" data-original="#000000"/><g clip-path="url(#a)" transform="matrix(1.33333 0 0 -1.33333 0 682.667)" style="stroke-width:20" fill="none" stroke-miterlimit="10"><path d="M0 0c4.009-9.478 6.226-19.897 6.226-30.835 0-43.752-35.468-79.219-79.219-79.219-43.751 0-79.219 35.467-79.219 79.219 0 43.751 35.468 79.218 79.219 79.218 27.398 0 51.548-13.908 65.773-35.05" style="stroke-width:20;stroke-linecap:butt;stroke-linejoin:miter;stroke-miterlimit:10;stroke-dasharray:none;stroke-opacity:1" transform="translate(164.524 455.992)" data-original="#000000"/><path d="M0 0v-51h38.125" style="stroke-width:20;stroke-linecap:butt;stroke-linejoin:miter;stroke-miterlimit:10;stroke-dasharray:none;stroke-opacity:1" transform="translate(91.531 476.156)" data-original="#000000"/><path d="M503.969 7.625H8.032v41h495.937z" style="stroke-width:20;stroke-linecap:butt;stroke-linejoin:miter;stroke-miterlimit:10;stroke-dasharray:none;stroke-opacity:1" data-original="#000000"/><path d="M0 0v-78.667" style="stroke-width:20;stroke-linecap:butt;stroke-linejoin:miter;stroke-miterlimit:10;stroke-dasharray:15,15;stroke-opacity:1" transform="translate(391.531 256)" stroke-dasharray="15, 15" data-original="#000000"/><path d="m0 0 135.125 104.938L180 29.875l152 132" style="stroke-width:20;stroke-linecap:butt;stroke-linejoin:miter;stroke-miterlimit:10;stroke-dasharray:none;stroke-opacity:1" transform="translate(78.531 246.063)" data-original="#000000"/><path d="M0 0h45v-44.938" style="stroke-width:20;stroke-linecap:butt;stroke-linejoin:miter;stroke-miterlimit:10;stroke-dasharray:none;stroke-opacity:1" transform="translate(365.531 407.938)" data-original="#000000"/></g></g><g/></svg>