<?xml version="1.0" encoding="UTF-8"?><svg fill="#7468f1" xmlns="http://www.w3.org/2000/svg" viewBox="-20.28 -20.28 98.5 98.5" xml:space="preserve" stroke="#7468f1"><path d="M28.97 66.557c11.37 1.898 24.442 3.142 32.941-4.646 8.666-7.94 8.499-21.195 8.083-32.941-.396-11.215-2.39-22.764-10.333-30.691-7.937-7.92-19.478-10.245-30.691-10.25C17.75-11.977 6.812-9-1.751-1.751-11.121 6.18-21.013 16.8-19.396 28.97c1.562 11.752 15.49 16.24 24.85 23.516 7.499 5.827 14.15 12.507 23.516 14.071" fill="#7468f121" stroke="none"/><g stroke-linecap="round" stroke-linejoin="round"/><g fill="none" stroke-width="20" transform="scale(.1)" stroke-linecap="round" stroke-linejoin="round" stroke-miterlimit="10"><path d="M431.72 96.336c44.97 44.97 72.78 107.09 72.78 175.71 0 60.79-21.83 116.49-58.08 159.67-7.54 8.99-21.17 9.58-29.47 1.29l-37.8-37.8c-7.17-7.18-7.86-18.6-1.54-26.54 21.1-26.52 33.7-60.1 33.7-96.62 0-5.83-.32-11.58-.95-17.24m-12.03-45.02c-7.82-17.86-18.92-33.96-32.51-47.56M80.284 96.333C35.314 141.303 7.5 203.428 7.5 272.049c0 60.791 21.829 116.484 58.076 159.668 7.545 8.989 21.174 9.582 29.472 1.284l37.798-37.798c7.174-7.174 7.86-18.598 1.544-26.537-21.097-26.519-33.703-60.096-33.703-96.617 0-42.888 17.384-81.716 45.49-109.823" style="stroke-width:20;stroke-linecap:round;stroke-linejoin:round;stroke-miterlimit:10" data-original="#000000"/><circle cx="256" cy="272.049" r="46.594" style="stroke-width:20;stroke-linecap:round;stroke-linejoin:round;stroke-miterlimit:10" data-original="#000000"/><path d="M160.515 42.556c-30.227 12.591-57.434 30.98-80.231 53.777l65.893 65.894c28.106-28.106 66.934-45.49 109.823-45.49s81.716 17.384 109.822 45.49l65.894-65.894C386.746 51.364 324.621 23.549 256 23.549c-21.463 0-42.29 2.721-62.155 7.837m11.264 413.857-17.898 30.999c-3.133 5.426.783 12.209 7.049 12.209h123.479c6.266 0 10.182-6.783 7.049-12.209l-61.739-106.936c-3.133-5.426-10.964-5.426-14.097 0l-26.056 45.13M256 411.831v15.531m0 31.062h0M396.653 258.48l37.9-10.155c12.428-3.33 19.803-16.105 16.473-28.533h0c-3.33-12.428-16.105-19.803-28.533-16.473l-92.922 24.898a125.008 125.008 0 0 1-39.842 4.035l-10.557-.634m17.111 63.86 8.827-5.828a125.016 125.016 0 0 1 36.521-16.427l20.996-5.626" style="stroke-width:20;stroke-linecap:round;stroke-linejoin:round;stroke-miterlimit:10" data-original="#000000"/></g></svg>