<svg width="53" height="53" viewBox="0 0 53 53" fill="none" xmlns="http://www.w3.org/2000/svg">
<path fill-rule="evenodd" clip-rule="evenodd" d="M2.87017 0.174869C2.54764 0.278739 2.1195 0.465352 1.91863 0.589519C1.33207 0.952079 0.541321 1.89384 0.280086 2.54088L0.0397672 3.13603L0.0123288 23.4336C-0.0150061 43.5564 -0.0133494 43.7371 0.194458 44.4234C0.533452 45.5431 1.23432 46.3469 2.36727 46.9155L3.03811 47.2521H12.7732H22.5082L23.202 46.9234C24.0847 46.5051 24.7641 45.8257 25.1823 44.9429L25.5109 44.2489L25.5418 40.5931L25.5726 36.9372L25.8006 37.0203C26.095 37.1276 26.8949 37.1272 27.1904 37.0197L27.4204 36.936L27.4493 43.4403L27.4782 49.9447L27.8068 50.6386C28.225 51.5214 28.9044 52.2009 29.7871 52.6192L30.4809 52.9479L36.9522 52.978C40.5114 52.9946 43.5313 52.9813 43.663 52.9485C44.1186 52.8351 44.2887 51.9419 43.9139 51.6307C43.7895 51.5272 42.3268 51.4866 37.2729 51.4463C30.0908 51.3889 30.4562 51.4251 29.7116 50.6969C29.0731 50.0727 29.0346 49.9188 28.9972 47.8476L28.9631 45.9576H40.2056H51.448V47.6285C51.448 49.6673 51.3688 49.979 50.6749 50.6731C50.0211 51.3271 49.6316 51.4463 48.1485 51.4463C47.1337 51.4463 46.9709 51.4711 46.7886 51.6534C46.5084 51.9336 46.5141 52.518 46.7998 52.8037C47.0053 53.0093 47.1042 53.0198 48.4863 52.9841C49.8904 52.9479 49.9837 52.9318 50.6236 52.6164C51.3684 52.2493 52.0617 51.6192 52.451 50.9558C53.0264 49.9754 52.9985 51.0713 52.9999 29.3214C53.0011 9.45509 52.9986 9.208 52.7924 8.54025C52.4307 7.369 51.4801 6.35692 50.3216 5.90965C49.8747 5.73723 49.2034 5.725 40.162 5.725H30.4809L29.7871 6.0537C28.9044 6.47198 28.225 7.15143 27.8068 8.03427L27.4782 8.72821L27.4453 12.4046L27.4123 16.0809L26.9534 16.5987L26.4945 17.1165L26.0344 16.5987L25.5744 16.0809L25.5426 9.55668L25.5109 3.03247L25.1913 2.35934C24.7694 1.47081 24.0749 0.771576 23.2045 0.359204L22.5082 0.0292656L12.9824 0.00762176C4.01151 -0.0127793 3.42246 -0.00304482 2.87017 0.174869ZM6.21424 3.03247C6.68142 4.12626 6.93882 4.59021 7.2628 4.92191C8.0462 5.72397 8.05355 5.725 12.9824 5.725C16.9244 5.725 17.3764 5.7075 17.8148 5.53829C18.6983 5.19727 19.0181 4.71976 20.1685 2.02277L20.3783 1.53087H21.1206C21.5289 1.53087 22.0547 1.58814 22.2891 1.65814C22.8704 1.83171 23.7469 2.69466 23.8955 3.23959C23.9705 3.51495 24.0086 5.54916 24.0089 9.30856L24.0096 14.9633L23.4876 14.7135C23.2005 14.5761 22.5867 14.3678 22.1237 14.2507C20.9405 13.9514 19.1402 14.0185 17.9524 14.406C16.95 14.7331 16.0473 15.257 15.8366 15.6338C15.697 15.8835 15.6989 15.9487 15.8561 16.2783C16.1273 16.8471 16.4253 16.8629 17.3723 16.3581C18.3923 15.8145 19.174 15.6149 20.2821 15.6149C22.4319 15.6149 24.2256 16.5784 25.421 18.3753C26.3248 19.7338 26.6644 19.7618 27.453 18.5424C28.6424 16.7036 30.2511 15.7454 32.3285 15.6386C33.5798 15.5743 34.2404 15.7064 35.3721 16.2474C37.8789 17.4459 39.2464 20.3953 38.7071 23.4404C37.9717 27.5932 33.9456 31.9159 28.0796 34.8507L26.5066 35.6377L25.3875 35.0946C20.7899 32.8634 17.0205 29.6266 15.39 26.5097C14.2626 24.3547 13.9054 22.1368 14.3924 20.3175C14.744 19.0048 14.7449 18.9734 14.4411 18.6696C14.0917 18.32 13.6072 18.3462 13.3218 18.7302C13.0286 19.125 12.7243 20.3973 12.6534 21.5256C12.3712 26.0101 15.4185 30.7156 20.96 34.3526C21.703 34.8403 22.6931 35.4444 23.1602 35.6953L24.0096 36.1512V37.4299V38.7085H12.7753H1.54111L1.54339 21.1294C1.54567 3.66791 1.54712 3.54716 1.75658 3.08425C2.03936 2.45938 2.41946 2.07259 3.04246 1.77589C3.49577 1.55987 3.6867 1.53253 4.57767 1.55593L5.59517 1.58265L6.21424 3.03247ZM18.6254 1.61838C18.6254 1.66653 18.4259 2.16361 18.1821 2.72294C17.4973 4.29372 17.9356 4.17162 12.9824 4.17162C8.04071 4.17162 8.46481 4.28657 7.78506 2.76332C7.5462 2.22782 7.34812 1.73157 7.34501 1.66032C7.34056 1.55831 8.53408 1.53087 12.9824 1.53087C16.0861 1.53087 18.6254 1.57022 18.6254 1.61838ZM33.6367 8.72324C34.3436 10.3645 34.693 10.8306 35.4954 11.2018C35.9539 11.4139 36.1067 11.4207 40.4208 11.4207H44.8731L45.3677 11.175C46.1173 10.8027 46.5061 10.2622 47.1739 8.66432L47.7723 7.23241L48.5368 7.22951C48.9573 7.22796 49.4818 7.28067 49.7025 7.34684C50.2705 7.51699 50.9171 8.11007 51.2022 8.72241L51.4459 9.24601L51.4469 26.8251L51.448 44.4043H40.2138H28.9795L28.9796 40.2878L28.9797 36.1713L29.9892 35.6104C35.4278 32.5884 39.0503 28.5603 40.056 24.4165C40.9994 20.5293 39.6458 16.9426 36.538 15.0949C35.4047 14.4212 34.4032 14.1384 32.9579 14.0845C31.5685 14.0325 30.5429 14.2205 29.5178 14.7151L28.9795 14.9748L28.9802 12.1622C28.9805 10.4553 29.0251 9.18677 29.0936 8.93533C29.232 8.42779 30.1135 7.52962 30.637 7.36289C30.8358 7.29962 31.4471 7.24297 31.9954 7.23717L32.9922 7.22661L33.6367 8.72324ZM46.0593 7.30428C46.0568 7.34694 45.8354 7.87126 45.5673 8.46932C44.8641 10.0379 45.2669 9.92991 40.2504 9.89553C36.3133 9.8685 36.136 9.85887 35.9169 9.66045C35.6524 9.42082 35.5094 9.15964 35.0306 8.04089L34.6822 7.22661H40.373C43.503 7.22661 46.0618 7.26161 46.0593 7.30428ZM17.7453 10.1387C15.5374 10.6461 13.4011 11.8949 11.7735 13.6296C9.81861 15.7131 8.66527 18.3226 8.5113 21.0108C8.45239 22.0402 8.46243 22.1231 8.67045 22.3312C8.95156 22.6124 9.54226 22.6284 9.80847 22.3622C9.95829 22.2123 10.0128 21.9491 10.0604 21.1453C10.2105 18.6119 11.2451 16.3642 13.1336 14.4684C14.6075 12.9887 16.2623 12.0663 18.145 11.6748C19.1944 11.4566 19.4537 11.2799 19.4537 10.7833C19.4537 10.0934 18.8816 9.87751 17.7453 10.1387ZM43.0938 24.211C42.802 24.3285 42.7317 24.4751 42.3979 25.6601C41.4953 28.8639 39.0117 32.2929 35.712 34.8912C35.2519 35.2536 34.8481 35.6557 34.8149 35.7849C34.6602 36.3857 35.32 37.0028 35.8297 36.734C36.3521 36.4586 38.1976 34.8504 39.2393 33.7631C41.6732 31.2223 43.2218 28.6192 43.9794 25.7955C44.2423 24.8156 44.1979 24.4752 43.7789 24.2584C43.4475 24.087 43.4082 24.0842 43.0938 24.211ZM24.0089 41.9447C24.0086 42.8703 23.9576 43.814 23.8955 44.0418C23.7469 44.5867 22.8704 45.4497 22.2891 45.6232C21.6943 45.8008 3.87794 45.8075 3.28661 45.6303C2.71859 45.4601 2.07197 44.8671 1.78692 44.2547C1.56162 43.7708 1.54308 43.5996 1.54215 41.9965L1.54111 40.2619H12.7753H24.0096L24.0089 41.9447ZM9.04319 42.4838C8.90341 42.6236 8.789 42.8586 8.789 43.0062C8.789 43.1538 8.90341 43.3889 9.04319 43.5287L9.29728 43.7829H12.7753H16.2534L16.5075 43.5287C16.6473 43.3889 16.7617 43.1538 16.7617 43.0062C16.7617 42.8586 16.6473 42.6236 16.5075 42.4838L16.2534 42.2295H12.7753H9.29728L9.04319 42.4838ZM36.4816 48.1795C36.3418 48.3193 36.2274 48.5544 36.2274 48.7019C36.2274 48.8495 36.3418 49.0846 36.4816 49.2244L36.7357 49.4786H40.2138H43.6918L43.9459 49.2244C44.0857 49.0846 44.2001 48.8495 44.2001 48.7019C44.2001 48.5544 44.0857 48.3193 43.9459 48.1795L43.6918 47.9253H40.2138H36.7357L36.4816 48.1795Z" fill="black"/>
</svg>
