<svg width="54" height="53" viewBox="0 0 54 53" fill="none" xmlns="http://www.w3.org/2000/svg">
<path fill-rule="evenodd" clip-rule="evenodd" d="M11.952 0.151708C11.4089 0.322678 10.4827 1.28064 10.3162 1.84361C10.2422 2.09382 10.1816 2.57523 10.1816 2.91352V3.52866L6.99433 3.5638L3.80702 3.59905L2.97142 4.01183C1.96475 4.50894 1.33727 5.14927 0.850198 6.1763L0.5 6.91455V28.3053V49.696L0.913267 50.5311C1.41096 51.537 2.05161 52.1635 3.08029 52.6502L3.81942 53H27H50.1806L50.9197 52.6502C51.9484 52.1635 52.589 51.537 53.0867 50.5311L53.5 49.696V28.3053V6.91455L53.1498 6.1763C52.6627 5.14927 52.0353 4.50894 51.0286 4.01183L50.193 3.59905L47.0057 3.5638L43.8184 3.52866V2.91352C43.8184 2.03127 43.6221 1.4957 43.0769 0.89007C42.0285 -0.274665 40.4659 -0.298757 39.3334 0.83238C38.7062 1.45879 38.5073 1.96186 38.5073 2.92115V3.5438H34.0814H29.6555V2.92115C29.6555 2.03127 29.4606 1.49714 28.9141 0.89007C27.8657 -0.274665 26.303 -0.298757 25.1706 0.83238C24.5434 1.45879 24.3445 1.96186 24.3445 2.92115V3.5438H19.9186H15.4927V2.92115C15.4927 2.03127 15.2977 1.49714 14.7512 0.89007C14.0351 0.0945715 13.0006 -0.178405 11.952 0.151708ZM13.4507 2.04685L13.7223 2.31806V5.31206V8.30607L13.4507 8.57728C13.0914 8.93623 12.5829 8.93623 12.2236 8.57728L11.952 8.30607V5.31206V2.31806L12.2236 2.04685C12.3948 1.87577 12.6216 1.77553 12.8372 1.77553C13.0527 1.77553 13.2795 1.87577 13.4507 2.04685ZM27.6135 2.04685L27.8852 2.31806V5.31206V8.30607L27.6135 8.57728C27.2543 8.93623 26.7457 8.93623 26.3865 8.57728L26.1148 8.30607V5.31206V2.31806L26.3865 2.04685C26.5576 1.87577 26.7845 1.77553 27 1.77553C27.2155 1.77553 27.4424 1.87577 27.6135 2.04685ZM41.7764 2.04685L42.048 2.31806V5.31206V8.30607L41.7764 8.57728C41.4171 8.93623 40.9086 8.93623 40.5493 8.57728L40.2777 8.30607V5.31206V2.31806L40.5493 2.04685C40.7205 1.87577 40.9473 1.77553 41.1628 1.77553C41.3784 1.77553 41.6052 1.87577 41.7764 2.04685ZM10.1816 6.81885C10.1816 8.6942 10.2864 9.07129 11.0077 9.79174C12.1402 10.9229 13.7029 10.8988 14.7512 9.73405C15.3867 9.02818 15.4927 8.61121 15.4927 6.81885V5.31206H19.9186H24.3445V6.81885C24.3445 8.6942 24.4493 9.07129 25.1706 9.79174C26.303 10.9229 27.8657 10.8988 28.9141 9.73405C29.5495 9.02818 29.6555 8.61121 29.6555 6.81885V5.31206H34.0814H38.5073V6.81885C38.5073 8.6942 38.6121 9.07129 39.3334 9.79174C40.4659 10.9229 42.0285 10.8988 43.0769 9.73405C43.7124 9.02818 43.8184 8.61121 43.8184 6.81885V5.31206H46.6547C48.5582 5.31206 49.6408 5.35627 49.9465 5.44645C50.5542 5.62582 51.4708 6.54134 51.6504 7.14841C51.7428 7.46073 51.785 8.62999 51.785 10.8783V14.1534H27H2.21503V10.8783C2.21503 8.62999 2.25719 7.46073 2.34958 7.14841C2.5161 6.58543 3.44233 5.62748 3.98539 5.45651C4.22228 5.38191 5.50015 5.3303 7.27714 5.32333L10.1816 5.31206V6.81885ZM51.785 32.4587C51.785 45.1196 51.7534 49.1024 51.6504 49.4506C51.4708 50.0577 50.5542 50.9732 49.9465 51.1526C49.2843 51.348 4.71566 51.348 4.05354 51.1526C3.44576 50.9732 2.52916 50.0577 2.34958 49.4506C2.24657 49.1024 2.21503 45.1196 2.21503 32.4587V15.9217H27H51.785V32.4587ZM31.779 20.5357C31.6553 20.6422 31.102 21.6948 30.5495 22.875C29.9969 24.0552 29.5302 25.0355 29.5122 25.0534C29.4943 25.0713 28.4861 25.2385 27.2717 25.4251C24.6626 25.8257 24.719 25.8109 24.494 26.1542C24.1382 26.6963 24.3341 27.0133 26.1405 28.8216L27.8214 30.5041L27.4439 32.8555C27.2363 34.1487 27.0718 35.3298 27.0783 35.4801C27.0925 35.8042 27.5785 36.2567 27.9124 36.2567C28.0423 36.2567 29.0556 35.7594 30.1642 35.1516C31.2729 34.5437 32.2404 34.0464 32.3142 34.0464C32.388 34.0464 33.3551 34.5437 34.4633 35.1516C35.5715 35.7594 36.5834 36.2567 36.7121 36.2567C37.0438 36.2567 37.5295 35.8034 37.5442 35.4801C37.551 35.3298 37.3871 34.1481 37.1801 32.8539L36.8038 30.501L38.4886 28.8155C39.8943 27.4093 40.1843 27.0635 40.2387 26.7283C40.292 26.4001 40.2555 26.2781 40.0397 26.0624C39.7612 25.7843 39.7931 25.7914 36.6641 25.3101L35.0977 25.0691L34.0832 22.8991C33.5253 21.7057 32.9674 20.6422 32.8436 20.5357C32.7198 20.4293 32.4801 20.3423 32.3111 20.3423C32.142 20.3423 31.9026 20.4293 31.779 20.5357ZM16.6495 22.3819C16.3801 22.6509 16.3779 22.6702 16.3779 24.763C16.3779 27.6037 16.1893 27.4154 19.0334 27.4154C21.8775 27.4154 21.6889 27.6037 21.6889 24.763C21.6889 21.9223 21.8775 22.1106 19.0334 22.1106C16.9382 22.1106 16.9188 22.1128 16.6495 22.3819ZM43.2048 22.3819C42.9354 22.6509 42.9332 22.6702 42.9332 24.763C42.9332 27.6037 42.7447 27.4154 45.5887 27.4154C47.6839 27.4154 47.7033 27.4132 47.9726 27.1441C48.242 26.8751 48.2443 26.8557 48.2443 24.763C48.2443 21.9223 48.4328 22.1106 45.5887 22.1106C43.4935 22.1106 43.4741 22.1128 43.2048 22.3819ZM33.0767 24.9273C33.4628 25.7471 33.8543 26.4806 33.9468 26.5575C34.0393 26.6343 34.8815 26.8214 35.8185 26.9733L37.522 27.2496L36.2442 28.602C35.5415 29.3458 34.9666 30.0437 34.9666 30.1529C34.9666 30.2621 35.0886 31.0942 35.2377 32.0018C35.3868 32.9095 35.4988 33.6602 35.4866 33.6701C35.4745 33.68 34.8421 33.3384 34.0814 32.9111C33.1046 32.3623 32.5846 32.1338 32.3111 32.133C32.0341 32.1324 31.5299 32.3547 30.5407 32.914C29.78 33.3442 29.1477 33.6862 29.1355 33.6741C29.1233 33.662 29.2353 32.9095 29.3844 32.0018C29.5335 31.0942 29.6555 30.2621 29.6555 30.1529C29.6555 30.0437 29.0806 29.3458 28.3779 28.602L27.1001 27.2496L28.8037 26.9733C29.7406 26.8214 30.5829 26.6343 30.6754 26.5575C30.7679 26.4806 31.1593 25.7471 31.5454 24.9273C31.9313 24.1075 32.276 23.4368 32.3111 23.4368C32.3461 23.4368 32.6908 24.1075 33.0767 24.9273ZM19.9186 24.763V25.6471H19.0334H18.1482V24.763V23.8789H19.0334H19.9186V24.763ZM46.4739 24.763V25.6471H45.5887H44.7035V24.763V23.8789H45.5887H46.4739V24.763ZM7.79773 31.2232C7.52831 31.4922 7.5261 31.5116 7.5261 33.6043C7.5261 36.445 7.33755 36.2567 10.1816 36.2567C13.0257 36.2567 12.8372 36.445 12.8372 33.6043C12.8372 30.7636 13.0257 30.9519 10.1816 30.9519C8.08641 30.9519 8.06705 30.9541 7.79773 31.2232ZM16.6495 31.2232C16.3801 31.4922 16.3779 31.5116 16.3779 33.6043C16.3779 36.445 16.1893 36.2567 19.0334 36.2567C21.8775 36.2567 21.6889 36.445 21.6889 33.6043C21.6889 30.7636 21.8775 30.9519 19.0334 30.9519C16.9382 30.9519 16.9188 30.9541 16.6495 31.2232ZM43.2048 31.2232C42.9354 31.4922 42.9332 31.5116 42.9332 33.6043C42.9332 36.445 42.7447 36.2567 45.5887 36.2567C47.6839 36.2567 47.7033 36.2545 47.9726 35.9854C48.242 35.7164 48.2443 35.6971 48.2443 33.6043C48.2443 30.7636 48.4328 30.9519 45.5887 30.9519C43.4935 30.9519 43.4741 30.9541 43.2048 31.2232ZM11.0668 33.6043V34.4885H10.1816H9.29645V33.6043V32.7202H10.1816H11.0668V33.6043ZM19.9186 33.6043V34.4885H19.0334H18.1482V33.6043V32.7202H19.0334H19.9186V33.6043ZM46.4739 33.6043V34.4885H45.5887H44.7035V33.6043V32.7202H45.5887H46.4739V33.6043ZM7.79773 40.0646C7.52831 40.3336 7.5261 40.3529 7.5261 42.4457C7.5261 45.2864 7.33755 45.0981 10.1816 45.0981C13.0257 45.0981 12.8372 45.2864 12.8372 42.4457C12.8372 39.6049 13.0257 39.7933 10.1816 39.7933C8.08641 39.7933 8.06705 39.7955 7.79773 40.0646ZM16.6495 40.0646C16.3801 40.3336 16.3779 40.3529 16.3779 42.4457C16.3779 45.2864 16.1893 45.0981 19.0334 45.0981C21.8775 45.0981 21.6889 45.2864 21.6889 42.4457C21.6889 39.6049 21.8775 39.7933 19.0334 39.7933C16.9382 39.7933 16.9188 39.7955 16.6495 40.0646ZM25.5013 40.0646C25.2319 40.3336 25.2296 40.3529 25.2296 42.4457C25.2296 45.2864 25.0411 45.0981 27.8852 45.0981C29.9804 45.0981 29.9998 45.0959 30.2691 44.8267C30.5385 44.5577 30.5407 44.5384 30.5407 42.4457C30.5407 39.6049 30.7293 39.7933 27.8852 39.7933C25.79 39.7933 25.7706 39.7955 25.5013 40.0646ZM34.3531 40.0646C34.0836 40.3336 34.0814 40.3529 34.0814 42.4457C34.0814 45.2864 33.8929 45.0981 36.7369 45.0981C38.8322 45.0981 38.8515 45.0959 39.1208 44.8267C39.3903 44.5577 39.3925 44.5384 39.3925 42.4457C39.3925 39.6049 39.581 39.7933 36.7369 39.7933C34.6417 39.7933 34.6224 39.7955 34.3531 40.0646ZM43.2048 40.0646C42.9354 40.3336 42.9332 40.3529 42.9332 42.4457C42.9332 45.2864 42.7447 45.0981 45.5887 45.0981C47.6839 45.0981 47.7033 45.0959 47.9726 44.8267C48.242 44.5577 48.2443 44.5384 48.2443 42.4457C48.2443 39.6049 48.4328 39.7933 45.5887 39.7933C43.4935 39.7933 43.4741 39.7955 43.2048 40.0646ZM11.0668 42.4457V43.3298H10.1816H9.29645V42.4457V41.5615H10.1816H11.0668V42.4457ZM19.9186 42.4457V43.3298H19.0334H18.1482V42.4457V41.5615H19.0334H19.9186V42.4457ZM28.7704 42.4457V43.3298H27.8852H27V42.4457V41.5615H27.8852H28.7704V42.4457ZM37.6221 42.4457V43.3298H36.7369H35.8518V42.4457V41.5615H36.7369H37.6221V42.4457ZM46.4739 42.4457V43.3298H45.5887H44.7035V42.4457V41.5615H45.5887H46.4739V42.4457Z" fill="black"/>
</svg>
