<svg width="54" height="53" viewBox="0 0 54 53" fill="none" xmlns="http://www.w3.org/2000/svg">
<path fill-rule="evenodd" clip-rule="evenodd" d="M1.05027 0.144649C0.518283 0.439646 0.528535 0.294479 0.526568 7.51222C0.524496 15.0743 0.525118 15.0831 1.24921 16.5528C1.75376 17.5771 2.73334 18.6204 3.70577 19.1691L4.34847 19.5318L4.37653 35.1261L4.4046 50.7204L4.6227 51.192C4.94146 51.8814 5.42788 52.3834 6.0945 52.7109C6.57968 52.9492 6.81922 53 7.45963 53C8.75414 53 9.75567 52.3617 10.2966 51.192L10.5147 50.7204L10.5447 35.1261L10.5747 19.5318L11.2171 19.1691C12.1862 18.6219 13.1651 17.578 13.6701 16.5528C14.3932 15.0849 14.3944 15.0705 14.3964 7.53294C14.3983 0.245468 14.4092 0.387112 13.8315 0.123822C13.4881 -0.0327429 13.2371 -0.0327429 12.8937 0.123822C12.3225 0.384108 12.327 0.334164 12.327 6.52268V12.2268H11.3949H10.4629V6.53273C10.4629 2.33884 10.4303 0.767075 10.3391 0.566991C10.2039 0.270025 9.76966 0 9.42728 0C9.08491 0 8.65068 0.270025 8.51543 0.566991C8.4243 0.767075 8.39168 2.33884 8.39168 6.53273V12.2268H7.45963H6.52759V6.53273C6.52759 2.33884 6.49497 0.767075 6.40383 0.566991C6.1818 0.0793705 5.55899 -0.120506 5.02306 0.123822C4.45193 0.384108 4.45638 0.334164 4.45638 6.52268V12.2268H3.52433H2.59229V6.53273C2.59229 2.33884 2.55967 0.767075 2.46853 0.566991C2.24184 0.0690088 1.55523 -0.135427 1.05027 0.144649ZM51.6141 0.408354C50.6763 1.03907 49.3407 2.2375 48.4477 3.24953C46.2676 5.72027 44.758 8.81002 44.1003 12.1473C43.8767 13.2817 43.8691 13.5424 43.8345 21.3581C43.7952 30.237 43.7883 30.1224 44.4427 31.4194C44.6774 31.885 45.1244 32.4277 46.0468 33.3676L47.3255 34.6706L47.3538 42.6955C47.3818 50.6059 47.3853 50.7272 47.6003 51.192C47.9191 51.8814 48.4055 52.3834 49.0721 52.7109C49.5573 52.9492 49.7968 53 50.4373 53C51.7318 53 52.7333 52.3617 53.2742 51.192L53.4923 50.7204L53.5195 25.8006C53.5398 7.15982 53.5166 0.807693 53.4273 0.590927C53.2946 0.269196 52.8602 0 52.4737 0C52.3349 0 51.9481 0.183816 51.6141 0.408354ZM51.3557 50.3885C51.2281 50.6989 50.7921 50.9795 50.4373 50.9795C50.1373 50.9795 49.6525 50.7145 49.5436 50.4911C49.494 50.3893 49.4301 46.5908 49.4016 42.0501L49.3499 33.7942L47.8941 32.3101C46.9383 31.3356 46.3515 30.6481 46.1854 30.3079L45.9324 29.7898L45.9039 22.1796C45.8803 15.8836 45.9022 14.3626 46.0311 13.3722C46.492 9.82774 48.0746 6.5578 50.5408 4.05401L51.4211 3.16031L51.4479 26.6295C51.468 44.1359 51.4445 50.1724 51.3557 50.3885ZM24.7542 6.8499C22.8486 7.06573 20.494 7.73209 18.7996 8.53512C17.7676 9.0243 17.505 9.28552 17.505 9.82277C17.505 10.2952 17.9801 10.7761 18.4468 10.7761C18.6317 10.7761 19.3926 10.5228 20.1376 10.2132C23.136 8.9671 26.2031 8.55056 29.3459 8.96285C33.1029 9.45555 36.3239 10.988 39.1409 13.6229C40.1121 14.5312 40.2294 14.61 40.6127 14.61C41.2076 14.61 41.6346 14.1736 41.6346 13.5656C41.6346 13.1559 41.5833 13.0773 40.8547 12.3692C37.638 9.24345 33.5684 7.33369 29.0819 6.84472C27.9283 6.71893 25.8891 6.72142 24.7542 6.8499ZM25.5309 11.8774C23.2612 12.1238 20.7432 13.053 18.7569 14.3772C17.5981 15.1499 15.6591 17.09 14.9001 18.2366C13.7815 19.9263 13.0466 21.6551 12.6139 23.6149C12.3005 25.0351 12.3016 27.9979 12.6161 29.4369C13.9016 35.3175 18.2795 39.6807 24.1652 40.9471C25.6715 41.2712 28.3899 41.272 29.8913 40.9488C31.4031 40.6235 32.4129 40.2634 33.7718 39.5651C37.7207 37.536 40.4865 33.8702 41.4452 29.3948C41.7472 27.9848 41.7714 25.2752 41.4944 23.8874C40.5631 19.2223 37.6755 15.409 33.5051 13.3367C31.5364 12.3585 29.7394 11.9229 27.4468 11.8683C26.6209 11.8486 25.7588 11.8526 25.5309 11.8774ZM28.9054 14.0356C32.958 14.6469 36.4723 17.2131 38.3475 20.9306C38.8719 21.9703 39.3336 23.4403 39.5161 24.6521C40.5516 31.5247 35.7803 37.9793 28.8971 39.0174C23.4422 39.8402 18.0346 36.9627 15.6453 31.9658C12.8167 26.0501 14.9749 19.0208 20.6636 15.6215C23.0633 14.1875 26.073 13.6084 28.9054 14.0356ZM12.1934 14.6516C12.0133 15.762 10.8212 17.1626 9.67635 17.609C9.33998 17.7401 8.93672 17.9824 8.78003 18.1472L8.49524 18.4471V34.3039C8.49524 51.5453 8.52817 50.5823 7.92856 50.8556C7.58515 51.0122 7.33412 51.0122 6.99071 50.8556C6.3911 50.5823 6.42403 51.5447 6.42403 34.3102V18.4596L6.15591 18.1409C6.00844 17.9656 5.82949 17.8221 5.75824 17.8221C5.44217 17.8221 4.34785 17.1585 3.86816 16.6761C3.31587 16.1206 2.8223 15.2458 2.72588 14.6516L2.66872 14.2991H7.45963H12.2506L12.1934 14.6516ZM26.5517 17.0959C26.2173 17.2309 25.997 17.6141 25.997 18.0603C25.997 19.093 27.447 19.4488 27.9206 18.5324C28.3885 17.627 27.5127 16.7079 26.5517 17.0959ZM22.7415 18.038C19.9875 19.4329 18.0419 22.1613 17.6158 25.2256C17.4283 26.5752 17.4566 26.8091 17.8571 27.2098C18.2459 27.5988 18.5783 27.655 19.049 27.4115C19.4148 27.2222 19.525 26.92 19.659 25.7376C19.7817 24.6554 20.1342 23.5561 20.6304 22.7092C21.1511 21.8206 22.484 20.5472 23.4609 20.0055C23.9159 19.7532 24.3689 19.4786 24.4674 19.3955C24.7358 19.169 24.8018 18.6291 24.607 18.2522C24.2829 17.6252 23.6908 17.5572 22.7415 18.038ZM41.4094 37.1759C41.314 37.2168 40.6861 37.828 40.014 38.5343C37.338 41.3461 34.6404 42.9215 31.0362 43.7775C26.7321 44.7996 21.9723 44.0903 18.1781 41.8615C17.5935 41.5181 17.1209 41.3117 16.9102 41.3079C16.1961 41.2947 15.6833 42.0421 15.9554 42.6993C16.1127 43.0793 16.6825 43.4685 18.1781 44.2176C26.5285 48.3998 36.6645 46.1719 42.489 38.8738C42.6719 38.6446 42.7738 38.3929 42.7738 38.1702C42.7738 37.5324 41.9605 36.9398 41.4094 37.1759ZM13.2704 38.8973C13.1343 38.9728 12.9612 39.146 12.8858 39.2822C12.3087 40.3239 13.6694 41.3629 14.5097 40.5222C15.35 39.6814 14.3116 38.3199 13.2704 38.8973Z" fill="black"/>
</svg>
