<svg width="61" height="53" viewBox="0 0 61 53" fill="none" xmlns="http://www.w3.org/2000/svg">
<path fill-rule="evenodd" clip-rule="evenodd" d="M36.6202 0.136941C33.4763 0.779737 30.8477 2.88056 29.4702 5.85132C28.7601 7.38272 28.586 8.22025 28.5954 10.0588C28.6016 11.2877 28.6593 11.8491 28.8521 12.5589C28.9889 13.0624 29.8919 15.1871 30.8588 17.2807L32.6169 21.0871L31.9921 22.0824C31.1643 23.401 30.7177 24.5119 30.8627 24.893C30.9952 25.2417 31.4198 25.5536 31.7619 25.5536C32.1756 25.5536 32.4723 25.2066 33.045 24.0523C36.8969 16.289 47.3133 14.5646 53.4269 20.6782C57.3702 24.6215 58.3563 30.3902 55.936 35.3552C54.958 37.361 53.5656 39.0193 51.8324 40.2416L51.0216 40.8135H47.6518C44.4203 40.8135 44.2692 40.8235 43.9726 41.0569C43.5357 41.4004 43.5357 42.1047 43.9726 42.4483C44.2701 42.6825 44.4175 42.6917 47.8756 42.6913L51.4693 42.6911L52.1737 42.2667C53.1623 41.6712 54.1487 40.8632 55.1153 39.8568C59.7066 35.0774 60.4719 27.8388 56.9922 22.1065C56.6879 21.6052 56.4635 21.1325 56.4933 21.056C56.5232 20.9795 57.3165 19.2526 58.2563 17.2186C60.3457 12.6955 60.5016 12.1983 60.5 10.0588C60.4986 8.22037 60.3192 7.3657 59.6171 5.85132C58.5353 3.51831 56.59 1.61516 54.3707 0.718814C52.6076 0.0066439 52.947 0.031999 44.8371 0.00535275C39.0202 -0.0136635 37.2156 0.0152131 36.6202 0.136941ZM52.2679 2.03129C55.2321 2.69557 57.6076 4.98022 58.4179 7.94593C58.7444 9.1409 58.694 11.2656 58.3121 12.4065C57.9735 13.4179 55.1438 19.5809 55.0381 19.5373C54.9995 19.5213 54.586 19.1581 54.1193 18.7303L53.2707 17.9522L54.627 15.0194C56.0645 11.9109 56.3419 11.1079 56.3391 10.0635C56.3349 8.52628 55.7636 7.12858 54.6764 5.99641C53.4541 4.7235 52.117 4.18963 50.1515 4.18963C49.0164 4.18963 48.9156 4.20888 48.6468 4.47781C48.2819 4.84264 48.2802 5.25912 48.6418 5.67971C48.9129 5.99512 48.9815 6.01202 50.2558 6.07752C51.2897 6.13082 51.7081 6.2043 52.1309 6.40702C52.9991 6.82338 53.5944 7.4116 54.0175 8.27155C54.365 8.97762 54.4035 9.1578 54.3989 10.0567L54.3938 11.0566L53.049 13.9672C52.0422 16.146 51.6599 16.8641 51.528 16.8233C51.4312 16.7933 50.8766 16.5595 50.2955 16.3037C48.5857 15.5508 47.0613 15.2117 45.0576 15.1383C42.4893 15.0443 40.522 15.4287 38.2862 16.4618C37.8013 16.6858 37.3943 16.8554 37.3818 16.8387C37.1897 16.5848 34.8335 11.253 34.7325 10.8441C34.4582 9.73216 34.8451 8.27038 35.6595 7.34281C35.8605 7.11391 36.357 6.74661 36.7628 6.52652L37.5006 6.12647L41.9612 6.09689C44.4145 6.08069 46.5392 6.04043 46.6826 6.00744C47.0583 5.92117 47.4196 5.4872 47.4196 5.12237C47.4196 4.94958 47.3101 4.66903 47.1762 4.49894L46.933 4.18963H42.3261C38.4534 4.18963 37.6176 4.21945 37.0817 4.37686C34.9574 5.00087 33.2565 6.8147 32.8663 8.87221C32.5469 10.556 32.7305 11.2795 34.3849 14.8599C35.089 16.3835 35.6819 17.6953 35.7025 17.775C35.7465 17.9459 34.0126 19.4697 33.9067 19.3531C33.7272 19.1557 30.8601 12.742 30.6702 12.1131C30.5109 11.5854 30.4597 11.0406 30.4662 9.94146C30.4737 8.66397 30.5164 8.35266 30.7958 7.53508C31.7536 4.73206 33.8799 2.75402 36.6789 2.06228C37.409 1.88186 38.2764 1.85826 44.4618 1.85063C50.4605 1.84312 51.5398 1.86812 52.2679 2.03129ZM10.5608 17.044C9.26366 17.3603 8.27364 17.8942 6.61746 19.1708C1.97219 22.7515 -0.496408 29.5687 0.879458 35.0163C1.31601 36.7449 2.64093 38.7538 3.92876 39.6398C4.47002 40.0123 10.3664 42.7595 11.3825 43.1128C11.8871 43.2883 12.3355 43.3353 13.4367 43.3282C14.6431 43.3205 14.9866 43.2727 15.829 42.9956C16.949 42.627 17.3691 42.2879 17.3691 41.7526C17.3691 41.3376 16.9213 40.8135 16.5668 40.8135C16.4423 40.8135 15.9777 40.9509 15.5342 41.1186C14.0451 41.6822 12.3565 41.6075 11.0055 40.9183C9.38821 40.0931 8.25603 37.933 8.02819 35.2378C7.96856 34.5321 7.88909 34.2331 7.70832 34.0346C7.40746 33.7041 6.8169 33.6861 6.43598 33.9956C6.18501 34.1995 6.16001 34.308 6.17093 35.1447C6.18384 36.1415 6.46509 37.6006 6.81666 38.4952C6.93722 38.8019 7.0087 39.0528 6.97548 39.0528C6.94226 39.0528 6.52132 38.8659 6.04004 38.6375C5.05202 38.1686 3.9621 37.2285 3.41098 36.3696C2.13477 34.3809 2.01034 30.7429 3.10648 27.4673C4.16283 24.3104 6.12022 21.6851 8.70562 19.9575C9.91386 19.1501 10.7424 18.8502 11.9694 18.7764C13.1799 18.7035 13.9741 18.8568 15.1347 19.3876C15.9515 19.7612 15.9912 19.796 15.7216 19.9012C13.0629 20.9375 10.7245 22.7619 9.16706 25.0148C8.02854 26.6617 6.70115 29.7886 6.50148 31.2938C6.43223 31.8153 6.45535 31.906 6.72639 32.1771C7.34841 32.7991 8.10484 32.4865 8.33456 31.5127C10.1147 23.9669 17.1592 19.015 21.2428 22.439C22.3822 23.3944 23.2139 24.8983 23.4138 26.3649C23.553 27.3871 24.274 27.8559 24.9636 27.3729C25.3302 27.1161 25.3854 26.6504 25.1732 25.6024C24.7798 23.6604 23.4785 21.6511 21.925 20.5872C21.0406 19.9815 15.0986 17.2624 14.1928 17.0488C13.2729 16.832 11.4406 16.8296 10.5608 17.044ZM42.6655 23.1906C41.5574 23.5096 40.5046 24.1343 39.6722 24.9666C38.9533 25.6855 38.1462 26.9486 38.1462 27.3546C38.1462 27.7153 38.417 28.1225 38.7484 28.2597C39.2971 28.487 39.7247 28.232 40.1582 27.4186C40.9469 25.9388 42.4974 24.9611 44.1969 24.8719C46.5368 24.7491 48.432 26.0377 49.1846 28.2632C49.7164 29.8359 49.3048 31.8086 48.1866 33.0463C47.3453 33.9775 45.8238 34.7095 44.7295 34.7095C43.9903 34.7095 43.5138 35.3567 43.7801 35.9994C44.0634 36.6834 45.12 36.7474 46.7527 36.1797C50.666 34.8187 52.4399 30.2644 50.4983 26.5634C49.6548 24.9554 47.9567 23.6131 46.1809 23.1505C45.2671 22.9125 43.5641 22.9319 42.6655 23.1906ZM28.5456 26.6779C26.7439 27.0725 24.9189 28.1249 23.237 29.7391C22.6087 30.3424 22.0639 30.8359 22.0264 30.8359C21.989 30.8359 20.8862 30.2481 19.5757 29.5297C18.2652 28.8112 17.0349 28.1773 16.8416 28.121C15.8802 27.8408 14.446 28.8141 13.7927 30.1902C13.4082 31.0001 13.2633 32.3043 13.4836 32.972C13.69 33.5972 14.0759 33.8827 16.5474 35.2393C17.8063 35.9303 18.8539 36.5119 18.8752 36.5316C18.8966 36.5513 18.7789 37.1036 18.6136 37.7587C18.014 40.1367 17.9713 42.5627 18.4927 44.6172C18.9491 46.4152 20.2322 48.368 21.5554 49.2783C22.0914 49.6472 27.935 52.3797 28.9315 52.7277C29.2543 52.8404 30.0202 52.9583 30.6336 52.9899C33.2302 53.1234 35.8398 51.9318 38.2676 49.5039C40.4233 47.3483 42.0463 44.2694 42.7441 41.0117C43.1286 39.2171 43.1045 36.6056 42.6891 35.0354C42.1524 33.0066 40.9809 31.1898 39.5947 30.236C38.8257 29.7069 32.5703 26.8559 31.7581 26.6644C30.8798 26.4573 29.5269 26.4629 28.5456 26.6779ZM32.4237 28.8917C32.9886 29.1371 33.4508 29.3715 33.4508 29.4129C33.4508 29.4542 33.1119 29.6095 32.6978 29.758C31.5305 30.1767 29.8995 31.3191 28.5729 32.6475C26.914 34.3084 25.7615 36.1041 24.8012 38.5245C23.6374 41.4576 23.4682 45.6356 24.4126 48.1209L24.6282 48.6881L24.3734 48.6091C23.625 48.3769 22.4262 47.6496 21.8948 47.1053C18.1793 43.2987 20.147 34.2296 25.5827 30.1077C27.1855 28.8924 28.6967 28.3529 30.3401 28.4094C31.2598 28.4411 31.5296 28.5036 32.4237 28.8917ZM18.633 31.149C19.7778 31.7733 20.7547 32.318 20.8039 32.3594C20.8529 32.4008 20.6543 32.8538 20.3625 33.3658C20.0707 33.878 19.8025 34.3898 19.7664 34.5033C19.7304 34.6167 19.6536 34.7095 19.5958 34.7095C19.4801 34.7095 15.6392 32.6404 15.4029 32.4508C15.2013 32.2891 15.2188 31.6221 15.4385 31.0962C15.6462 30.599 16.1633 30.0142 16.3953 30.0142C16.4812 30.0142 17.4881 30.5249 18.633 31.149ZM37.5888 31.3035C41.8429 32.9017 42.4101 40.2585 38.7207 45.9821C37.4162 48.0055 34.889 50.1925 33.1476 50.8044C31.7265 51.3039 29.8787 51.21 28.7131 50.5791C27.3165 49.823 26.0784 47.983 25.8151 46.2719C25.6508 45.2039 25.6517 42.9715 25.8169 41.9287C26.2623 39.1176 27.8215 36.0215 29.7953 34.0291C32.3981 31.4018 35.2217 30.4143 37.5888 31.3035Z" fill="black"/>
</svg>
