<svg width="74" height="53" viewBox="0 0 74 53" fill="none" xmlns="http://www.w3.org/2000/svg">
<path fill-rule="evenodd" clip-rule="evenodd" d="M19.9027 0.210077C15.7078 0.965947 11.8197 3.58546 9.22978 7.40113C8.52184 8.44406 7.54346 10.5801 7.15789 11.925C5.9848 16.0152 6.49931 20.9316 8.57434 25.4611C8.84636 26.0548 9.06888 26.5689 9.06888 26.6035C9.06888 26.6383 7.30082 26.6667 5.13978 26.6667H1.21054L0.860497 27.015C0.417021 27.456 0.415024 27.9595 0.854364 28.4679L1.19856 28.866L5.83046 28.907L10.4622 28.9481L11.0015 29.7584C14.4381 34.9222 20.4673 41.0154 27.8264 46.7617C31.5089 49.6371 35.815 52.4958 37.0986 52.9173C37.5519 53.0661 37.669 53.04 38.4169 52.6232C41.0749 51.1426 46.7329 47.1068 50.2751 44.1649C56.5217 38.9769 61.7139 33.333 64.4129 28.7976L65.1741 27.518H69.0632H72.9522L73.2477 27.1442C73.6326 26.6575 73.6209 26.3466 73.1994 25.8587L72.8553 25.4606L69.4957 25.4179L66.1358 25.3752L66.4357 24.6375C68.203 20.288 68.5678 15.7675 67.4624 11.9107C67.0195 10.3652 65.7701 7.85945 64.8137 6.59858C62.1163 3.04243 58.3066 0.72941 54.1516 0.12494C52.3564 -0.136145 49.3036 0.0260396 47.4616 0.480243C44.9423 1.1016 41.224 2.66925 38.7528 4.15218C38.0154 4.59475 37.3676 4.95686 37.3134 4.95686C37.2594 4.95686 36.6753 4.63207 36.0155 4.23519C32.7079 2.24555 28.8947 0.756369 25.7037 0.208232C24.1648 -0.0561171 21.3754 -0.0552657 19.9027 0.210077ZM25.4898 2.46932C28.5508 3.00326 32.4998 4.64952 35.8545 6.79028C36.5106 7.20887 37.1483 7.51096 37.3758 7.51096C37.61 7.51096 38.2358 7.20419 38.9323 6.74785C41.3558 5.16034 45.5106 3.30621 48.1069 2.65364C49.1789 2.38418 49.7356 2.33835 51.8617 2.34445C54.1616 2.35112 54.4581 2.38205 55.6305 2.73835C59.5679 3.93494 62.6962 6.59659 64.4916 10.2779C66.448 14.2887 66.3856 18.8866 64.3063 23.9771L63.7583 25.3187L60.3122 25.3567L56.8662 25.3946L55.8017 23.583C53.9393 20.4133 53.782 20.1868 53.3713 20.0842C52.6993 19.9165 52.2738 20.28 51.0186 22.0948C50.3563 23.0522 49.769 23.7861 49.7137 23.7258C49.6583 23.6653 48.7668 20.8703 47.7326 17.5145C46.6985 14.1587 45.7439 11.3028 45.6114 11.1681C45.4789 11.0335 45.1726 10.8839 44.9307 10.8358C43.9382 10.6383 44.0468 10.3521 40.5229 22.4712C38.7546 28.5532 37.2781 33.5588 37.242 33.5948C37.2057 33.6307 37.1307 33.5392 37.0751 33.3915C35.6033 29.4837 30.1048 15.7515 29.9387 15.5688C29.6714 15.275 28.9203 15.2333 28.5647 15.4925C28.4309 15.5901 27.0778 18.0963 25.558 21.0619L22.7947 26.4538L17.2072 26.491L11.6199 26.5281L10.9987 25.214C7.99464 18.8588 8.12715 13.1484 11.3915 8.29138C12.2518 7.01121 14.392 4.99659 15.7446 4.19347C16.9816 3.45903 19.1788 2.63774 20.4803 2.42334C21.72 2.21901 24.1846 2.24172 25.4898 2.46932ZM46.5902 21.5985C47.5084 24.5471 48.374 27.0851 48.5138 27.2388C48.7845 27.5365 49.4318 27.6066 49.8506 27.3837C49.9894 27.3097 50.6929 26.3866 51.4141 25.3322C52.1353 24.2778 52.7839 23.3791 52.8555 23.335C52.9271 23.291 53.5325 24.1743 54.2006 25.2981C54.8688 26.4218 55.5198 27.381 55.6473 27.4295C55.7747 27.4782 57.3538 27.518 59.1562 27.518H62.4334L62.0741 28.1211C58.7974 33.6203 51.1994 41.0555 42.6613 47.1175C40.6195 48.5671 37.5012 50.6468 37.3694 50.6468C37.2183 50.6468 34.2576 48.6802 32.2483 47.2452C29.8792 45.5531 27.1817 43.4627 24.8301 41.4965C22.6519 39.6751 17.6758 34.7771 16.2511 33.0519C15.0811 31.6352 13.2055 29.163 13.2055 29.0375C13.2055 28.9893 15.5782 28.9312 18.4783 28.908C23.2109 28.8703 23.7761 28.8413 23.993 28.6254C24.126 28.493 25.3025 26.3081 26.6077 23.7701L28.9807 19.1552L32.5978 28.3735C34.5872 33.4435 36.3078 37.7236 36.4214 37.8848C36.9603 38.6502 38 38.5051 38.354 37.615C38.4676 37.3295 39.9622 32.3155 41.6752 26.4726C43.3882 20.6298 44.8193 15.9366 44.8553 16.0433C44.8913 16.1502 45.6722 18.6499 46.5902 21.5985Z" fill="black"/>
</svg>
